<svg id="Layer_1" enable-background="new 0 0 256 256" height="512" viewBox="0 0 256 256" width="512" xmlns="http://www.w3.org/2000/svg"><g><g><g><g><g><path d="m247.427 163.879c-5.329-3.077-12.143-1.251-15.219 4.078-.188.326-.357.657-.509.993l-69.22-39.964c.215-.299.418-.611.606-.937 3.077-5.329 1.251-12.143-4.078-15.219-5.329-3.077-12.143-1.251-15.219 4.078-1.818 3.149-1.912 6.813-.595 9.921-3.351.414-6.476 2.327-8.295 5.476-3.077 5.329-1.251 12.143 4.078 15.219s12.143 1.251 15.219-4.078c.188-.326.357-.657.509-.993l69.22 39.964c-.215.299-.418.611-.606.937-3.077 5.329-1.251 12.143 4.078 15.219 5.329 3.077 12.143 1.251 15.219-4.078 1.818-3.149 1.912-6.813.595-9.921 3.351-.414 6.476-2.327 8.295-5.476 3.077-5.328 1.251-12.142-4.078-15.219z" fill="#e0ebfc"/></g></g><g><g><path d="m232.945 202.063c-2.229 0-4.484-.566-6.549-1.758-6.018-3.475-8.248-11.022-5.228-17.17l-65.708-37.937c-1.771 2.646-4.408 4.539-7.512 5.371-3.393.909-6.932.443-9.973-1.313-3.04-1.755-5.214-4.588-6.122-7.979-.909-3.391-.442-6.932 1.313-9.972 1.674-2.9 4.318-4.993 7.452-5.962-.728-3.198-.237-6.534 1.437-9.435 3.624-6.275 11.675-8.433 17.952-4.811 6.018 3.474 8.249 11.022 5.228 17.17l65.709 37.938c3.815-5.692 11.465-7.534 17.483-4.058 6.275 3.623 8.433 11.676 4.811 17.951-1.675 2.9-4.319 4.993-7.453 5.962.729 3.199.237 6.535-1.437 9.435-2.431 4.211-6.858 6.568-11.403 6.568zm-78.24-61.61c.348 0 .692.091 1 .268l69.22 39.964c.489.282.836.758.955 1.311s-.001 1.129-.33 1.587c-.178.247-.345.504-.5.773-2.52 4.363-1.019 9.965 3.347 12.485 4.365 2.52 9.968 1.018 12.487-3.346 1.442-2.498 1.62-5.465.485-8.141-.244-.578-.204-1.237.109-1.78.314-.543.864-.908 1.487-.985 2.884-.356 5.365-1.993 6.808-4.491 2.521-4.365 1.02-9.967-3.346-12.487-4.367-2.521-9.968-1.018-12.487 3.346-.154.268-.294.542-.42.82-.233.514-.673.905-1.21 1.077-.539.173-1.123.109-1.611-.172l-69.22-39.964c-.489-.282-.836-.758-.955-1.311s.001-1.129.33-1.587c.177-.247.345-.503.5-.772 2.52-4.365 1.019-9.967-3.347-12.487-4.368-2.521-9.968-1.018-12.487 3.346-1.442 2.499-1.619 5.466-.485 8.141.244.578.204 1.237-.109 1.78-.314.543-.864.908-1.487.985-2.885.356-5.365 1.993-6.807 4.49-1.222 2.115-1.546 4.579-.914 6.938.632 2.358 2.145 4.33 4.259 5.55s4.577 1.544 6.938.913c2.358-.632 4.329-2.144 5.55-4.259.156-.27.294-.543.42-.82.233-.514.673-.905 1.21-1.078.198-.063.405-.094.61-.094z" fill="#3762cc"/></g></g><g><g><path d="m251.505 132.305c-1.818-3.149-4.944-5.062-8.295-5.476 1.317-3.109 1.223-6.772-.595-9.921-3.077-5.329-9.891-7.155-15.219-4.078-5.329 3.076-7.155 9.89-4.078 15.219.188.326.391.638.606.937l-69.22 39.964c-.152-.336-.32-.667-.509-.993-3.077-5.329-9.891-7.155-15.219-4.078-5.329 3.077-7.155 9.891-4.078 15.219 1.818 3.149 4.944 5.063 8.295 5.476-1.317 3.108-1.223 6.772.595 9.921 3.077 5.329 9.89 7.155 15.219 4.078s7.155-9.891 4.078-15.219c-.188-.326-.391-.638-.606-.937l69.22-39.964c.152.336.32.667.509.993 3.077 5.329 9.89 7.155 15.219 4.078 5.329-3.076 7.155-9.89 4.078-15.219z" fill="#e0ebfc"/></g></g><g><g><path d="m153.459 202.063c-4.545 0-8.972-2.356-11.403-6.568-1.674-2.901-2.164-6.237-1.437-9.435-3.135-.969-5.778-3.063-7.452-5.963-1.755-3.039-2.222-6.581-1.313-9.971.908-3.391 3.082-6.224 6.122-7.979 3.04-1.754 6.58-2.22 9.973-1.313 3.104.832 5.741 2.725 7.511 5.371l65.71-37.937c-3.021-6.148-.791-13.695 5.227-17.17 6.274-3.622 14.328-1.465 17.952 4.81 1.674 2.9 2.165 6.236 1.437 9.435 3.134.969 5.778 3.062 7.453 5.962 3.622 6.276 1.464 14.329-4.811 17.951-6.018 3.475-13.67 1.634-17.483-4.058l-65.709 37.938c3.021 6.149.789 13.696-5.228 17.169-2.065 1.192-4.32 1.758-6.549 1.758zm-8.926-37.681c-1.585 0-3.147.416-4.557 1.229-2.114 1.221-3.627 3.192-4.259 5.551s-.308 4.822.914 6.937c1.441 2.499 3.922 4.135 6.807 4.491.623.077 1.173.441 1.487.985.313.543.354 1.203.109 1.78-1.134 2.675-.957 5.642.485 8.141 2.521 4.366 8.122 5.864 12.487 3.346 4.365-2.52 5.866-8.122 3.346-12.487-.154-.267-.321-.524-.499-.771-.329-.458-.449-1.035-.33-1.587s.466-1.028.955-1.311l69.22-39.964c.488-.282 1.074-.345 1.611-.172s.977.564 1.21 1.078c.126.278.267.553.422.823 2.518 4.361 8.118 5.862 12.485 3.342 4.365-2.52 5.866-8.122 3.346-12.487-1.442-2.498-3.924-4.135-6.808-4.491-.623-.077-1.173-.441-1.487-.985-.313-.543-.354-1.203-.109-1.78 1.134-2.676.957-5.643-.485-8.141-2.521-4.365-8.123-5.865-12.487-3.346-4.365 2.521-5.866 8.123-3.346 12.487.154.268.322.525.499.771.329.458.449 1.035.33 1.587s-.466 1.028-.955 1.311l-69.22 39.964c-.488.282-1.072.345-1.611.172-.537-.172-.977-.563-1.21-1.077-.125-.276-.264-.55-.419-.818-1.222-2.117-3.192-3.629-5.551-4.261-.787-.212-1.586-.317-2.38-.317z" fill="#3762cc"/></g></g><g><g><g><path d="m227.609 81.222c0-13.967-12.68-25.29-28.321-25.29h-12.17c-15.642 0-28.321 11.323-28.321 25.29 0 5.769 2.167 11.084 5.81 15.339.488.57.343 1.15.31 1.529l-.798 9.1c-.505 5.753 4.587 10.669 11.049 10.669h.128c.621 0 1.124.449 1.124 1.003v5.135c0 2.484 2.255 4.498 5.037 4.498h23.624c2.782 0 5.037-2.014 5.037-4.498v-5.135c0-.554.503-1.003 1.124-1.003 6.462 0 11.554-4.917 11.049-10.669-.908-10.353-1.045-9.979-.489-10.629 3.639-4.255 5.807-9.57 5.807-15.339z" fill="#e0ebfc"/></g></g><g><g><circle cx="179.817" cy="87.56" fill="#4671c6" r="9.37"/></g></g><g><g><circle cx="206.588" cy="87.56" fill="#4671c6" r="9.37"/></g></g><g><g><path d="m189.577 107.364h7.25c.63 0 1.023-.682.708-1.227l-3.625-6.271c-.315-.545-1.101-.545-1.416 0l-3.625 6.271c-.315.546.078 1.227.708 1.227z" fill="#4671c6"/></g></g><g><g><path d="m193.202 130.495c-1.104 0-2-.896-2-2v-7.49c0-1.104.896-2 2-2s2 .896 2 2v7.49c0 1.105-.895 2-2 2z" fill="#3762cc"/></g></g><g><g><path d="m185.723 130.495c-1.104 0-2-.896-2-2v-7.49c0-1.104.896-2 2-2s2 .896 2 2v7.49c0 1.105-.896 2-2 2z" fill="#3762cc"/></g></g><g><g><path d="m200.682 130.495c-1.104 0-2-.896-2-2v-7.49c0-1.104.896-2 2-2s2 .896 2 2v7.49c0 1.105-.896 2-2 2z" fill="#3762cc"/></g></g><g><g><path d="m205.078 130.495h-23.624c-3.88 0-7.037-2.915-7.037-6.498v-4.158c-3.615-.187-6.976-1.717-9.309-4.264-2.198-2.4-3.259-5.441-2.984-8.562l.82-9.303c0-.005.001-.01.002-.015-4.024-4.773-6.15-10.465-6.15-16.475 0-15.047 13.603-27.29 30.321-27.29h12.17c16.719 0 30.321 12.242 30.321 27.29 0 6.004-2.122 11.691-6.139 16.461.016.603.145 2.005.326 3.967.125 1.36.286 3.108.484 5.365.274 3.121-.786 6.161-2.984 8.562-2.306 2.517-5.614 4.041-9.181 4.256v4.165c.001 3.585-3.156 6.499-7.036 6.499zm-17.961-72.563c-14.514 0-26.321 10.448-26.321 23.29 0 5.112 1.843 9.966 5.329 14.038.996 1.165.848 2.435.792 2.913l-.809 9.191c-.175 1.99.518 3.947 1.95 5.51 1.737 1.897 4.327 2.985 7.106 2.985h.128c1.723 0 3.124 1.347 3.124 3.003v5.135c0 1.377 1.362 2.498 3.037 2.498h23.624c1.675 0 3.037-1.121 3.037-2.498v-5.135c0-1.656 1.401-3.003 3.124-3.003 2.779 0 5.369-1.088 7.106-2.985 1.433-1.563 2.125-3.52 1.95-5.51-.197-2.249-.358-3.991-.483-5.347-.489-5.295-.519-5.612.439-6.726 3.514-4.104 5.356-8.958 5.356-14.07 0-12.842-11.808-23.29-26.321-23.29h-12.168z" fill="#3762cc"/></g></g><g><g><path d="m179.816 98.93c-6.269 0-11.369-5.101-11.369-11.37s5.101-11.37 11.369-11.37c6.27 0 11.37 5.101 11.37 11.37.001 6.27-5.1 11.37-11.37 11.37zm0-18.74c-4.063 0-7.369 3.306-7.369 7.37s3.306 7.37 7.369 7.37 7.37-3.306 7.37-7.37c.001-4.063-3.306-7.37-7.37-7.37z" fill="#3762cc"/></g></g><g><g><path d="m206.588 98.93c-6.27 0-11.37-5.101-11.37-11.37s5.101-11.37 11.37-11.37 11.369 5.101 11.369 11.37c0 6.27-5.101 11.37-11.369 11.37zm0-18.74c-4.063 0-7.37 3.306-7.37 7.37s3.307 7.37 7.37 7.37 7.369-3.306 7.369-7.37c0-4.063-3.306-7.37-7.369-7.37z" fill="#3762cc"/></g></g><g><g><path d="m196.827 109.364h-7.25c-1.004 0-1.939-.541-2.441-1.41-.501-.87-.5-1.95.003-2.818l3.624-6.27c.503-.869 1.438-1.407 2.439-1.407h.002c1.003 0 1.937.54 2.438 1.408l3.625 6.271c.502.868.503 1.948.002 2.817-.502.869-1.438 1.409-2.442 1.409zm-5.201-4h3.152l-1.576-2.726z" fill="#3762cc"/></g></g></g></g></g><g><g><path d="m21.768 207.181h-11.429c-1.081 0-1.957-.876-1.957-1.957v-45.767c0-1.081.876-1.957 1.957-1.957h11.429c1.081 0 1.957.876 1.957 1.957v45.767c0 1.081-.877 1.957-1.957 1.957z" fill="#4671c6"/></g></g><g><g><path d="m53.649 207.181h-11.429c-1.081 0-1.957-.876-1.957-1.957v-83.17c0-1.081.876-1.957 1.957-1.957h11.429c1.081 0 1.957.876 1.957 1.957v83.17c0 1.081-.876 1.957-1.957 1.957z" fill="#4671c6"/></g></g><g><g><path d="m85.53 207.181h-11.429c-1.081 0-1.957-.876-1.957-1.957v-66.316c0-1.081.876-1.957 1.957-1.957h11.429c1.081 0 1.957.876 1.957 1.957v66.316c0 1.081-.876 1.957-1.957 1.957z" fill="#4671c6"/></g></g><g><g><path d="m117.411 207.181h-11.429c-1.081 0-1.957-.876-1.957-1.957v-100.407c0-1.081.876-1.957 1.957-1.957h11.429c1.081 0 1.957.876 1.957 1.957v100.408c0 1.08-.876 1.956-1.957 1.956z" fill="#4671c6"/></g></g><g><g><path d="m130.667 48.962-17.728 7.023c-1.434.568-1.712 2.476-.501 3.43l3.819 3.01-8.563 10.525-29.169 35.097-28.012-28.877c-.884-.912-2.123-1.395-3.387-1.332-1.268.065-2.447.675-3.233 1.673l-39.949 50.715c-1.505 1.91-1.176 4.679.734 6.184.807.636 1.768.944 2.722.944 1.303 0 2.593-.576 3.462-1.678l36.834-46.761 27.919 28.784c.87.897 2.083 1.388 3.329 1.334 1.249-.048 2.419-.625 3.218-1.585l32.332-38.903 8.678-10.667 4.165 3.283c1.205.95 2.987.245 3.216-1.273l2.828-18.767c.23-1.526-1.28-2.727-2.714-2.159z" fill="#f9a7a7"/></g></g><g><g><path d="m21.768 209.181h-11.429c-2.182 0-3.957-1.775-3.957-3.957v-45.767c0-2.182 1.775-3.957 3.957-3.957h11.429c2.182 0 3.957 1.775 3.957 3.957v45.767c0 2.182-1.776 3.957-3.957 3.957zm-.043-49.723-11.386.042.043 45.724 11.343-.043zm.043 45.723h.01z" fill="#3762cc"/></g></g><g><g><path d="m53.648 209.181h-11.428c-2.182 0-3.957-1.775-3.957-3.957v-83.17c0-2.182 1.775-3.957 3.957-3.957h11.429c2.182 0 3.957 1.775 3.957 3.957v83.17c-.001 2.182-1.776 3.957-3.958 3.957zm-.043-87.127-11.386.043.043 83.127 11.343-.043zm.043 83.127h.01z" fill="#3762cc"/></g></g><g><g><path d="m85.53 209.181h-11.428c-2.182 0-3.957-1.775-3.957-3.957v-66.316c0-2.182 1.775-3.957 3.957-3.957h11.428c2.182 0 3.957 1.775 3.957 3.957v66.316c0 2.182-1.775 3.957-3.957 3.957zm-.043-70.273-11.386.043.043 66.273 11.343-.043z" fill="#3762cc"/></g></g><g><g><path d="m117.411 209.181h-11.429c-2.182 0-3.957-1.775-3.957-3.957v-100.407c0-2.182 1.775-3.957 3.957-3.957h11.429c2.182 0 3.957 1.775 3.957 3.957v100.407c0 2.182-1.775 3.957-3.957 3.957zm-.043-104.364-11.386.043.043 100.364 11.343-.043zm.043 100.364h.01z" fill="#3762cc"/></g></g><g><g><path d="m7.4 139.354c-1.429 0-2.835-.487-3.959-1.373-2.773-2.186-3.253-6.22-1.068-8.993l39.949-50.715c1.144-1.45 2.856-2.337 4.701-2.432 1.845-.089 3.644.614 4.926 1.938l26.459 27.278 27.746-33.385 7.269-8.934-2.224-1.752c-1.138-.897-1.691-2.288-1.481-3.721.209-1.433 1.138-2.606 2.484-3.14l17.729-7.023c1.349-.534 2.829-.313 3.962.587 1.135.902 1.683 2.295 1.466 3.728l-2.827 18.766c-.215 1.425-1.143 2.593-2.482 3.124-1.343.531-2.815.315-3.949-.578l-2.618-2.064-7.436 9.14-32.347 38.921c-1.16 1.396-2.866 2.236-4.68 2.306-1.795.078-3.568-.628-4.841-1.939l-26.326-27.144-35.419 44.965c-1.223 1.551-3.058 2.44-5.034 2.44zm39.949-59.521c-.041 0-.082.001-.122.003-.689.036-1.333.368-1.762.913l-39.949 50.715c-.82 1.041-.64 2.555.401 3.375 1.012.797 2.58.606 3.375-.402l36.833-46.76c.357-.453.893-.73 1.469-.76.574-.022 1.136.191 1.538.605l27.919 28.784c.478.492 1.132.755 1.807.729.691-.026 1.331-.342 1.767-.866l32.332-38.903 8.665-10.651c.691-.847 1.931-.984 2.79-.309l4.165 3.283 2.827-18.767-17.729 7.023 3.819 3.01c.421.332.69.818.75 1.351.059.532-.099 1.066-.437 1.482l-8.563 10.525-29.183 35.113c-.363.437-.895.698-1.461.72-.592.018-1.118-.199-1.513-.606l-28.01-28.877c-.453-.468-1.077-.73-1.728-.73zm83.318-30.871h.01z" fill="#3762cc"/></g></g></g></svg>