<svg id="Layer_1" enable-background="new 0 0 256 256" height="512" viewBox="0 0 256 256" width="512" xmlns="http://www.w3.org/2000/svg"><g><g><g><path d="m183.057 253c0-22.39 0-39.704 0-61.679 0-15.559-12.613-28.172-28.172-28.172h-95.786c-15.559 0-28.172 12.613-28.172 28.172v61.679z" fill="#4671c6"/></g></g><g><g><path d="m135.108 138.64h-28.143-28.143v40.86h56.285c.001-14.204.001-25.729.001-40.86z" fill="#f9cfcf"/></g></g><g><g><path d="m183.057 255h-152.13c-1.104 0-2-.896-2-2v-61.68c0-16.637 13.535-30.172 30.172-30.172h17.723v-22.508c0-1.104.896-2 2-2h56.285c1.104 0 2 .896 2 2v22.508h17.777c16.637 0 30.172 13.535 30.172 30.172v61.68c.001 1.104-.894 2-1.999 2zm-150.13-4h148.13v-59.68c0-14.431-11.741-26.172-26.172-26.172h-19.777c-1.104 0-2-.896-2-2v-22.508h-52.286v22.508c0 1.104-.896 2-2 2h-19.722c-14.432 0-26.172 11.741-26.172 26.172v59.68z" fill="#3762cc"/></g></g><g><g><path d="m54.564 255c-1.104 0-2-.896-2-2v-42.333c0-1.104.896-2 2-2s2 .896 2 2v42.333c0 1.104-.895 2-2 2z" fill="#3762cc"/></g></g><g><g><path d="m159.365 255c-1.104 0-2-.896-2-2v-42.333c0-1.104.896-2 2-2s2 .896 2 2v42.333c0 1.104-.895 2-2 2z" fill="#3762cc"/></g></g><g><g><path d="m106.992 143.373c-36.448 0-65.994-29.546-65.994-65.994v-27.641c0-9.161 7.427-16.588 16.588-16.588h115.4v44.23c0 36.447-29.546 65.993-65.994 65.993z" fill="#4671c6"/></g></g><g><g><path d="m106.992 145.373c-37.492 0-67.994-30.502-67.994-67.994v-27.641c0-10.25 8.339-18.588 18.588-18.588h115.4c1.104 0 2 .896 2 2v44.23c0 37.491-30.502 67.993-67.994 67.993zm-49.406-110.224c-8.044 0-14.588 6.544-14.588 14.588v27.642c0 35.286 28.708 63.994 63.994 63.994s63.994-28.708 63.994-63.994v-42.23z" fill="#3762cc"/></g></g><g><g><path d="m163.2 81.84v-5.263c0-30.763-25.165-55.701-56.207-55.701-31.043 0-56.207 24.938-56.207 55.701v5.263c-9.76-.198-17.503 7.577-17.503 16.976 0 10.036 8.761 17.974 18.988 16.893 5.801 24.644 28.092 43.004 54.723 43.004 26.633 0 48.923-18.362 54.723-43.004 10.213 1.08 18.988-6.843 18.988-16.893-.002-9.403-7.751-17.174-17.505-16.976z" fill="#f9cfcf"/></g></g><g><g><path d="m106.992 160.713c-26.624 0-49.519-17.56-56.26-42.91-4.846.067-9.561-1.673-13.165-4.917-3.995-3.595-6.286-8.723-6.286-14.07 0-5.119 2.022-9.919 5.695-13.518 3.214-3.149 7.349-5.026 11.808-5.394v-3.327c0-31.816 26.112-57.701 58.208-57.701s58.208 25.885 58.208 57.701v3.327c4.459.368 8.593 2.245 11.808 5.395 3.672 3.599 5.695 8.399 5.695 13.518 0 5.347-2.291 10.475-6.284 14.068-3.605 3.244-8.334 4.99-13.167 4.918-6.741 25.35-29.637 42.91-56.26 42.91zm-54.721-47.005c.918 0 1.731.631 1.945 1.542 5.746 24.413 27.448 41.462 52.776 41.462 25.327 0 47.03-17.05 52.776-41.462.231-.98 1.152-1.636 2.157-1.531 4.313.458 8.622-.932 11.818-3.809 3.152-2.836 4.959-6.88 4.959-11.095 0-4.035-1.596-7.82-4.494-10.66-2.926-2.868-6.833-4.392-10.968-4.316-.532.016-1.056-.194-1.44-.571-.384-.376-.6-.891-.6-1.429v-5.263c0-29.611-24.317-53.701-54.208-53.701s-54.208 24.09-54.208 53.701v5.263c0 .538-.216 1.052-.6 1.429-.384.376-.904.584-1.44.571-4.17-.083-8.042 1.448-10.968 4.315-2.898 2.84-4.495 6.626-4.495 10.661 0 4.215 1.809 8.26 4.961 11.097 3.196 2.876 7.506 4.262 11.816 3.807.072-.007.143-.011.213-.011z" fill="#3762cc"/></g></g><g><g><path d="m172.986 71.036h-88.183c-18.788 0-34.018-15.23-34.018-34.018 0-18.788 15.23-34.018 34.018-34.018h57.721c16.824 0 30.462 13.638 30.462 30.462z" fill="#4671c6"/></g></g><g><g><path d="m172.986 73.036h-88.183c-19.86 0-36.018-16.158-36.018-36.018s16.157-36.018 36.018-36.018h57.721c17.9 0 32.462 14.563 32.462 32.462v37.574c0 1.105-.895 2-2 2zm-88.183-68.036c-17.655 0-32.018 14.363-32.018 32.018s14.363 32.018 32.018 32.018h86.184v-35.574c-.001-15.694-12.769-28.462-28.463-28.462z" fill="#3762cc"/></g></g><g><g><path d="m130.825 90.319c-1.091 1.249-1.756 2.878-1.756 4.666v7.578c0 3.923 3.181 7.104 7.104 7.104 3.924 0 7.104-3.181 7.104-7.104v-7.234c-5.085-.889-9.326-2.976-12.452-5.01z" fill="#3762cc"/></g></g><g><g><path d="m70.693 95.322v7.241c0 3.923 3.181 7.104 7.104 7.104s7.104-3.181 7.104-7.104v-7.578c0-1.796-.672-3.432-1.771-4.683-3.12 2.035-7.356 4.125-12.437 5.02z" fill="#3762cc"/></g></g><g><g><path d="m148.336 97.777c-14.916 0-24.57-10.554-24.983-11.014-.738-.822-.67-2.086.151-2.824.82-.738 2.083-.671 2.822.149.092.102 9.319 10.149 22.947 9.673 1.128-.028 2.03.828 2.067 1.931.037 1.104-.828 2.029-1.931 2.067-.361.012-.719.018-1.073.018z" fill="#3762cc"/></g></g><g><g><path d="m65.594 97.777c-.355 0-.711-.006-1.072-.018-1.104-.038-1.968-.963-1.931-2.067s.944-1.952 2.067-1.931c13.682.468 22.853-9.569 22.944-9.67.738-.822 2.002-.89 2.824-.151.822.738.89 2.002.151 2.824-.412.459-10.068 11.013-24.983 11.013z" fill="#3762cc"/></g></g><g><g><path d="m94.162 130.297c-.509 0-1.019-.193-1.409-.58-.784-.778-.789-2.044-.011-2.829 1.944-1.959 4.512-3.511 7.428-4.487 1.98-.663 4.198-1.015 6.592-1.045 2.579-.026 4.801.249 6.809.859 3.162.962 5.933 2.578 8.012 4.673.778.784.773 2.05-.011 2.829-.784.777-2.05.772-2.829-.011-1.614-1.627-3.806-2.894-6.337-3.664-1.607-.49-3.434-.709-5.593-.686-1.979.025-3.787.307-5.373.838-2.327.779-4.353 1.993-5.859 3.512-.39.394-.904.591-1.419.591z" fill="#3762cc"/></g></g><g><g><path d="m148.741 78.5h-83.156c-3.866 0-7-3.134-7-7v-27.5c0-3.866 3.134-7 7-7h83.156c3.866 0 7 3.134 7 7v27.5c0 3.866-3.134 7-7 7z" fill="#e0ebfc"/></g></g><g><g><path d="m148.741 80.5h-83.157c-4.962 0-9-4.038-9-9v-27.5c0-4.962 4.038-9 9-9h83.156c4.962 0 9 4.038 9 9v27.5c.001 4.962-4.037 9-8.999 9zm-83.157-41.5c-2.757 0-5 2.243-5 5v27.5c0 2.757 2.243 5 5 5h83.156c2.757 0 5-2.243 5-5v-27.5c0-2.757-2.243-5-5-5z" fill="#3762cc"/></g></g><g><g><path d="m146.34 235.333h-40.348c-1.657 0-3-1.343-3-3v-55.955c0-1.657 1.343-3 3-3h40.348c1.657 0 3 1.343 3 3v55.955c0 1.657-1.343 3-3 3z" fill="#6bdddd"/></g></g><g><g><g><path d="m156.418 111.953-4.522 9.185c-1.18 2.398-.773 5.273 1.027 7.249 2.579 2.831 7.033 2.831 9.611 0 1.8-1.976 2.207-4.851 1.027-7.249l-4.522-9.185c-.536-1.087-2.086-1.087-2.621 0z" fill="#a4c9ff"/></g></g><g><g><path d="m157.729 132.511c-2.387 0-4.677-1.012-6.284-2.776-2.37-2.602-2.896-6.323-1.342-9.479l4.521-9.185c.587-1.191 1.776-1.932 3.104-1.932 1.328 0 2.518.741 3.104 1.932l4.522 9.185c1.554 3.156 1.027 6.877-1.342 9.479-1.607 1.764-3.897 2.776-6.283 2.776zm0-18.691-4.038 8.202c-.823 1.671-.544 3.642.71 5.019.863.948 2.045 1.47 3.327 1.47s2.464-.522 3.327-1.47c1.254-1.377 1.533-3.348.71-5.019zm.483-.983c0 .001 0 .001 0 0z" fill="#3762cc"/></g></g></g><g><g><g><path d="m49.475 71.852-4.522 9.185c-1.18 2.398-.773 5.273 1.027 7.249 2.579 2.831 7.033 2.831 9.611 0 1.8-1.976 2.207-4.851 1.027-7.249l-4.522-9.185c-.536-1.087-2.086-1.087-2.621 0z" fill="#a4c9ff"/></g></g><g><g><path d="m50.785 92.409c-2.387 0-4.677-1.012-6.284-2.776-2.369-2.601-2.896-6.322-1.342-9.479l4.522-9.185c.587-1.192 1.776-1.932 3.105-1.932 1.328 0 2.518.74 3.104 1.932l4.522 9.185c1.554 3.157 1.027 6.878-1.343 9.479-1.608 1.764-3.898 2.776-6.284 2.776zm0-18.691-4.038 8.202c-.823 1.671-.544 3.642.71 5.019.863.948 2.045 1.47 3.327 1.47s2.464-.522 3.327-1.47c1.255-1.377 1.534-3.348.711-5.019z" fill="#3762cc"/></g></g></g><g><g><path d="m215.8 128.746v-95.545c0-6.481-5.254-11.735-11.735-11.735-6.481 0-11.735 5.254-11.735 11.735v95.545c-6.369 4.297-10.255 11.993-9.056 20.486 1.32 9.35 9.003 16.773 18.387 17.815 12.679 1.408 23.412-8.48 23.412-20.874 0-7.256-3.679-13.653-9.273-17.427z" fill="#e0ebfc"/></g></g><g><g><path d="m208.516 133.204v-100.003c0-2.458-1.993-4.451-4.451-4.451-2.458 0-4.451 1.993-4.451 4.451v100.003c-5.31 1.829-9.163 6.818-9.27 12.716-.134 7.358 5.818 13.677 13.172 13.965 7.817.307 14.274-5.963 14.274-13.713-.001-6.008-3.888-11.114-9.274-12.968z" fill="#f9a7a7"/></g></g><g><g><path d="m204.01 169.176c-.854 0-1.712-.047-2.57-.142-10.238-1.137-18.711-9.347-20.147-19.523-1.2-8.499 2.25-16.752 9.037-21.799v-94.511c0-7.574 6.162-13.735 13.735-13.735s13.735 6.161 13.735 13.735v94.513c5.826 4.338 9.272 11.16 9.272 18.459 0 6.536-2.795 12.786-7.668 17.148-4.23 3.786-9.729 5.855-15.394 5.855zm.055-145.711c-5.368 0-9.735 4.367-9.735 9.735v95.545c0 .665-.33 1.286-.881 1.658-6.089 4.109-9.229 11.216-8.194 18.549 1.185 8.394 8.177 15.168 16.627 16.106 5.5.608 10.775-1.065 14.855-4.719 4.027-3.604 6.336-8.768 6.336-14.167 0-6.328-3.137-12.223-8.391-15.769-.551-.372-.881-.993-.881-1.658v-95.544c-.001-5.368-4.368-9.736-9.736-9.736z" fill="#3762cc"/></g></g><g><g><g><path d="m102.992 221.5h46.348v5h-46.348z" fill="#e0ebfc"/></g></g></g><g><g><path d="m146.34 237.333h-40.348c-2.757 0-5-2.243-5-5v-55.956c0-2.757 2.243-5 5-5h40.348c2.757 0 5 2.243 5 5v55.956c0 2.757-2.243 5-5 5zm-40.348-61.955c-.551 0-1 .449-1 1v55.956c0 .551.449 1 1 1h40.348c.551 0 1-.449 1-1v-55.956c0-.551-.449-1-1-1z" fill="#3762cc"/></g></g><g><g><path d="m147.728 189.333h-81.472c-5.523 0-10-4.477-10-10v-20.175c0-5.523 4.477-10 10-10h81.472c5.523 0 10 4.477 10 10v20.175c0 5.523-4.477 10-10 10z" fill="#6bdddd"/></g></g><g><g><path d="m147.729 191.333h-81.473c-6.617 0-12-5.383-12-12v-20.175c0-6.617 5.383-12 12-12h81.473c6.617 0 12 5.383 12 12v20.175c0 6.617-5.384 12-12 12zm-81.473-40.175c-4.411 0-8 3.589-8 8v20.175c0 4.411 3.589 8 8 8h81.473c4.411 0 8-3.589 8-8v-20.175c0-4.411-3.589-8-8-8z" fill="#3762cc"/></g></g></g></svg>