<svg id="Layer_1" enable-background="new 0 0 256 256" height="512" viewBox="0 0 256 256" width="512" xmlns="http://www.w3.org/2000/svg"><g><g><g><g><g><g><path d="m90.854 240.451v-.057-12.355c0-8.431-6.834-15.265-15.265-15.265h-51.9c-8.431 0-15.265 6.834-15.265 15.265v12.355.057z" fill="#4671c6"/></g></g><g><g><path d="m34.375 195.203v18.793.002c0 8.422 6.827 15.249 15.249 15.249 8.422 0 15.249-6.827 15.249-15.249v-.002c0-7.039 0-12.196 0-18.793z" fill="#f9cfcf"/></g></g><g><g><path d="m90.854 242.451h-82.43c-1.104 0-2-.896-2-2v-12.412c0-9.52 7.745-17.265 17.265-17.265h8.687v-15.571c0-1.104.896-2 2-2h30.498c1.104 0 2 .896 2 2v15.571h8.716c9.52 0 17.265 7.745 17.265 17.265v12.355c-.001 1.105-.897 2.057-2.001 2.057zm-80.43-4h78.43v-10.412c0-7.314-5.95-13.265-13.265-13.265h-10.716c-1.104 0-2-.896-2-2v-15.571h-26.498v15.571c0 1.104-.896 2-2 2h-10.687c-7.314 0-13.265 5.95-13.265 13.265v10.412z" fill="#3762cc"/></g></g><g><g><path d="m49.639 202.059c-19.749 0-35.758-16.009-35.758-35.758v-14.977c0-4.964 4.024-8.988 8.988-8.988h62.528v23.965c0 19.749-16.009 35.758-35.758 35.758z" fill="#4671c6"/></g></g><g><g><path d="m49.639 204.06c-20.819 0-37.758-16.938-37.758-37.759v-14.977c0-6.059 4.93-10.988 10.988-10.988h62.528c1.104 0 2 .896 2 2v23.965c0 20.82-16.938 37.759-37.758 37.759zm-26.77-59.724c-3.854 0-6.988 3.135-6.988 6.988v14.977c0 18.614 15.144 33.759 33.758 33.759s33.759-15.145 33.759-33.759v-21.965z" fill="#3762cc"/></g></g><g><g><path d="m80.094 168.718v-2.852c0-16.669-13.635-30.181-30.455-30.181-16.82 0-30.455 13.512-30.455 30.181v2.852c-5.288-.107-9.484 4.106-9.484 9.198 0 5.438 4.747 9.739 10.288 9.153 3.143 13.353 15.221 23.301 29.651 23.301 14.431 0 26.508-9.949 29.651-23.301 5.534.585 10.288-3.708 10.288-9.153 0-5.094-4.199-9.305-9.484-9.198z" fill="#f9cfcf"/></g></g><g><g><path d="m65.45 184.188c-2.126 0-3.849-1.723-3.849-3.849v-4.106c0-2.126 1.723-3.849 3.849-3.849 2.126 0 3.849 1.723 3.849 3.849v4.106c.001 2.126-1.723 3.849-3.849 3.849z" fill="#3762cc"/></g></g><g><g><path d="m33.82 184.188c-2.126 0-3.849-1.723-3.849-3.849v-4.106c0-2.126 1.723-3.849 3.849-3.849 2.126 0 3.849 1.723 3.849 3.849v4.106c0 2.126-1.723 3.849-3.849 3.849z" fill="#3762cc"/></g></g><g><g><path d="m49.639 212.371c-14.609 0-27.205-9.485-31.184-23.263-2.6-.124-5.099-1.135-7.047-2.888-2.357-2.121-3.709-5.147-3.709-8.305 0-3.021 1.193-5.854 3.36-7.978 1.693-1.659 3.817-2.719 6.124-3.082v-.99c0-17.744 14.56-32.181 32.455-32.181 17.896 0 32.456 14.437 32.456 32.181v.99c2.307.363 4.431 1.423 6.123 3.081 2.167 2.124 3.36 4.957 3.36 7.979 0 3.156-1.352 6.184-3.708 8.304-1.948 1.753-4.447 2.765-7.047 2.889-3.977 13.778-16.574 23.263-31.183 23.263zm-29.649-27.302c.918 0 1.73.631 1.945 1.542 3.015 12.812 14.407 21.76 27.703 21.76 13.297 0 24.689-8.948 27.704-21.76.231-.981 1.156-1.635 2.157-1.531 2.112.228 4.132-.428 5.694-1.833 1.515-1.363 2.384-3.307 2.384-5.331 0-1.938-.767-3.757-2.16-5.121-1.408-1.38-3.297-2.133-5.282-2.076-.538-.016-1.057-.195-1.44-.571s-.601-.892-.601-1.429v-2.853c0-15.539-12.766-28.181-28.456-28.181s-28.455 12.642-28.455 28.181v2.853c0 .537-.217 1.053-.601 1.429s-.912.561-1.44.571c-1.975-.057-3.875.696-5.283 2.076-1.393 1.365-2.16 3.184-2.16 5.121 0 2.024.869 3.968 2.385 5.332 1.562 1.404 3.579 2.057 5.694 1.832.071-.007.142-.011.212-.011z" fill="#3762cc"/></g></g><g><g><path d="m85.397 162.864h-47.781c-10.18 0-18.432-8.252-18.432-18.432 0-10.18 8.252-18.432 18.432-18.432h31.276c9.116 0 16.506 7.39 16.506 16.506v20.358z" fill="#4671c6"/></g></g><g><g><path d="m85.397 164.864h-47.781c-11.267 0-20.433-9.166-20.433-20.433 0-11.266 9.166-20.432 20.433-20.432h31.275c10.204 0 18.506 8.301 18.506 18.505v20.359c0 1.106-.895 2.001-2 2.001zm-47.781-36.864c-9.061 0-16.433 7.371-16.433 16.432s7.372 16.433 16.433 16.433h45.781v-18.359c0-7.998-6.507-14.505-14.506-14.505h-31.275z" fill="#3762cc"/></g></g><g><g><path d="m49.624 198.384c-1.316 0-2.47-.156-3.525-.479-1.752-.533-3.294-1.436-4.458-2.609-.778-.784-.772-2.051.012-2.828s2.052-.772 2.828.012c.699.705 1.662 1.258 2.784 1.6.673.205 1.444.305 2.359.305s1.687-.1 2.357-.305c1.124-.341 2.087-.895 2.788-1.601.777-.784 2.043-.79 2.828-.01.784.778.788 2.044.01 2.828-1.165 1.174-2.708 2.076-4.46 2.609-1.053.322-2.207.478-3.523.478z" fill="#3762cc"/></g></g></g><g><g><g><path d="m245.354 195.086-2.699-20.667c.457-2.324.703-4.725.703-7.184v-8.172c0-18.261-14.804-33.065-33.065-33.065h-7.865c-18.261 0-33.065 14.804-33.065 33.065v8.172c0 2.45.244 4.843.699 7.159l-2.702 20.691c-1.268 9.713 6.294 18.327 16.09 18.327h22.907 22.907c9.796.002 17.358-8.612 16.09-18.326z" fill="#4671c6"/></g></g><g><g><path d="m229.265 215.414h-45.815c-5.244 0-10.236-2.261-13.696-6.201-3.46-3.941-5.055-9.185-4.376-14.385l2.66-20.372c-.447-2.386-.674-4.813-.674-7.22v-8.172c0-19.335 15.729-35.064 35.064-35.064h7.865c19.335 0 35.064 15.729 35.064 35.064v8.172c0 2.419-.229 4.854-.678 7.245l2.657 20.347c.679 5.2-.917 10.443-4.377 14.385s-8.45 6.201-13.694 6.201zm-26.836-87.414c-17.129 0-31.064 13.936-31.064 31.064v8.172c0 2.258.223 4.537.661 6.774.041.212.048.43.021.644l-2.701 20.691c-.53 4.06.715 8.151 3.415 11.228s6.597 4.841 10.69 4.841h45.814c4.093 0 7.989-1.765 10.69-4.84 2.701-3.076 3.946-7.169 3.416-11.229l-2.699-20.667c-.028-.215-.021-.433.021-.646.441-2.24.665-4.527.665-6.797v-8.172c0-17.129-13.936-31.064-31.064-31.064h-7.865z" fill="#3762cc"/></g></g><g><g><path d="m247.576 240.451v-.057-12.355c0-8.431-6.834-15.265-15.265-15.265h-51.9c-8.431 0-15.265 6.834-15.265 15.265v12.355.057z" fill="#f9a7a7"/></g></g><g><g><path d="m191.097 195.203v18.793.002c0 8.422 6.827 15.249 15.249 15.249 8.422 0 15.249-6.827 15.249-15.249v-.002c0-7.039 0-12.196 0-18.793z" fill="#f9cfcf"/></g></g><g><g><path d="m247.576 242.451h-82.43c-1.104 0-2-.896-2-2v-12.412c0-9.52 7.745-17.265 17.265-17.265h8.687v-15.571c0-1.104.896-2 2-2h30.497c1.104 0 2 .896 2 2v15.571h8.717c9.52 0 17.265 7.745 17.265 17.265v12.355c-.001 1.105-.896 2.057-2.001 2.057zm-80.43-4h78.43v-10.412c0-7.314-5.95-13.265-13.265-13.265h-10.717c-1.104 0-2-.896-2-2v-15.571h-26.497v15.571c0 1.104-.896 2-2 2h-10.687c-7.314 0-13.265 5.95-13.265 13.265v10.412z" fill="#3762cc"/></g></g><g><g><g><path d="m236.045 169.224v-2.779c0-16.246-13.29-29.416-29.684-29.416-16.394 0-29.684 13.17-29.684 29.416v2.779c-5.154-.105-9.244 4.002-9.244 8.965 0 5.3 4.627 9.492 10.028 8.921 3.063 13.015 14.836 22.711 28.9 22.711 14.065 0 25.837-9.697 28.9-22.711 5.393.57 10.028-3.614 10.028-8.921 0-4.966-4.093-9.07-9.244-8.965z" fill="#f9cfcf"/></g></g><g><g><path d="m206.361 211.821c-14.25 0-26.537-9.244-30.432-22.675-2.533-.129-4.966-1.117-6.864-2.825-2.308-2.077-3.632-5.041-3.632-8.133 0-2.958 1.169-5.733 3.291-7.813 1.646-1.614 3.711-2.648 5.953-3.011v-.921c0-17.323 14.213-31.416 31.684-31.416s31.684 14.093 31.684 31.416v.921c2.242.361 4.307 1.396 5.954 3.011 2.121 2.08 3.29 4.854 3.29 7.813 0 3.091-1.323 6.055-3.631 8.132-1.899 1.708-4.332 2.697-6.865 2.826-3.895 13.431-16.183 22.675-30.432 22.675zm-28.897-26.711c.917 0 1.73.631 1.945 1.542 2.933 12.464 14.016 21.169 26.952 21.169s24.02-8.705 26.952-21.169c.231-.981 1.173-1.635 2.157-1.531 2.047.22 3.999-.413 5.512-1.774 1.466-1.319 2.307-3.199 2.307-5.158 0-1.875-.742-3.635-2.09-4.955-1.362-1.335-3.198-2.046-5.113-2.01-.55-.022-1.057-.196-1.44-.571-.384-.376-.601-.892-.601-1.429v-2.779c0-15.117-12.419-27.416-27.684-27.416s-27.684 12.299-27.684 27.416v2.779c0 .537-.217 1.053-.601 1.429-.384.375-.898.554-1.44.571-1.938-.055-3.751.674-5.113 2.01-1.348 1.32-2.09 3.08-2.09 4.955 0 1.959.841 3.84 2.308 5.159 1.511 1.359 3.461 1.996 5.511 1.773.07-.007.142-.011.212-.011z" fill="#3762cc"/></g></g></g><g><g><path d="m206.369 195.856c-2.435 0-4.703-.879-6.223-2.411-.584-.588-.58-1.538.008-2.121.589-.585 1.538-.579 2.121.008.947.955 2.478 1.524 4.094 1.524 1.626 0 3.109-.556 4.069-1.524.585-.587 1.533-.592 2.122-.009.588.584.592 1.533.009 2.122-1.52 1.533-3.78 2.411-6.2 2.411z" fill="#3762cc"/></g></g><g><g><path d="m227.724 174.278c-.329-.572-1.061-.768-1.633-.437l-1.176.679c-.715-.993-1.878-1.642-3.196-1.642-2.176 0-3.939 1.764-3.939 3.939v4.202c0 2.176 1.764 3.939 3.939 3.939 2.176 0 3.939-1.764 3.939-3.939v-4.169l1.628-.94c.572-.329.768-1.06.438-1.632z" fill="#3762cc"/></g></g><g><g><path d="m184.991 173.909c.329-.572 1.061-.768 1.633-.437l1.176.679c.715-.993 1.878-1.642 3.196-1.642 2.176 0 3.939 1.764 3.939 3.939v4.202c0 2.176-1.764 3.939-3.939 3.939-2.176 0-3.939-1.764-3.939-3.939v-4.169l-1.628-.94c-.572-.329-.768-1.06-.438-1.632z" fill="#3762cc"/></g></g><g><g><path d="m243.359 170.049h-32.221c-14.396 0-26.066-11.67-26.066-26.066 0-9.932 8.051-17.983 17.983-17.983h7.239c18.261 0 33.065 14.804 33.065 33.065z" fill="#4671c6"/></g></g><g><g><path d="m243.358 172.049h-32.221c-15.476 0-28.066-12.591-28.066-28.066 0-11.019 8.965-19.982 19.983-19.982h7.239c19.335 0 35.064 15.729 35.064 35.064v10.984c.001 1.104-.894 2-1.999 2zm-40.303-44.049c-8.813 0-15.983 7.17-15.983 15.982 0 13.271 10.796 24.066 24.066 24.066h30.221v-8.984c0-17.129-13.936-31.064-31.064-31.064z" fill="#3762cc"/></g></g></g></g><g><g><g><path d="m167.057 248.025v-.054-11.708c0-7.989-6.476-14.466-14.466-14.466h-49.183c-7.989 0-14.466 6.476-14.466 14.466v11.708.054z" fill="#a4c9ff"/></g></g><g><g><path d="m113.535 205.146v17.809.002c0 7.981 6.47 14.451 14.451 14.451 7.981 0 14.45-6.47 14.45-14.451v-.002c0-6.671 0-11.558 0-17.809z" fill="#f9cfcf"/></g></g><g><g><path d="m167.058 250.025h-78.116c-1.104 0-2-.896-2-2v-11.763c0-9.079 7.387-16.465 16.466-16.465h8.127v-14.651c0-1.104.896-2 2-2h28.901c1.104 0 2 .896 2 2v14.651h8.155c9.079 0 16.466 7.386 16.466 16.465v11.709c.001 1.105-.895 2.054-1.999 2.054zm-76.116-4h74.115v-9.763c0-6.873-5.592-12.465-12.466-12.465h-10.155c-1.104 0-2-.896-2-2v-14.651h-24.901v14.651c0 1.104-.896 2-2 2h-10.127c-6.874 0-12.466 5.592-12.466 12.465z" fill="#3762cc"/></g></g><g><g><path d="m128 211.643c-18.715 0-33.886-15.171-33.886-33.886v-14.193c0-4.704 3.813-8.518 8.518-8.518h59.255v22.711c-.001 18.715-15.172 33.886-33.887 33.886z" fill="#4671c6"/></g></g><g><g><path d="m128 213.644c-19.787 0-35.886-16.099-35.886-35.887v-14.192c0-5.8 4.718-10.519 10.518-10.519h59.254c1.104 0 2 .896 2 2v22.711c0 19.788-16.099 35.887-35.886 35.887zm-25.368-56.598c-3.594 0-6.518 2.924-6.518 6.519v14.192c0 17.582 14.304 31.887 31.886 31.887s31.886-14.305 31.886-31.887v-20.711z" fill="#3762cc"/></g></g><g><g><path d="m156.861 180.048v-2.702c0-15.796-12.921-28.601-28.861-28.601-15.94 0-28.861 12.805-28.861 28.601v2.702c-5.012-.102-8.987 3.891-8.987 8.717 0 5.153 4.499 9.229 9.75 8.674 2.978 12.654 14.425 22.081 28.099 22.081 13.675 0 25.12-9.429 28.099-22.081 5.244.555 9.75-3.514 9.75-8.674-.002-4.829-3.981-8.819-8.989-8.717z" fill="#f9cfcf"/></g></g><g><g><path d="m142.984 194.708c-2.015 0-3.648-1.633-3.648-3.648v-3.891c0-2.015 1.633-3.648 3.648-3.648 2.015 0 3.648 1.633 3.648 3.648v3.891c-.001 2.015-1.634 3.648-3.648 3.648z" fill="#3762cc"/></g></g><g><g><path d="m113.009 194.708c-2.015 0-3.648-1.633-3.648-3.648v-3.891c0-2.015 1.633-3.648 3.648-3.648 2.015 0 3.648 1.633 3.648 3.648v3.891c0 2.015-1.633 3.648-3.648 3.648z" fill="#3762cc"/></g></g><g><g><path d="m128 221.52c-13.865 0-25.825-8.986-29.631-22.048-2.462-.135-4.823-1.1-6.669-2.76-2.255-2.03-3.549-4.927-3.549-7.947 0-2.892 1.143-5.604 3.216-7.636 1.599-1.566 3.599-2.574 5.771-2.935v-.849c0-16.874 13.845-30.602 30.861-30.602s30.861 13.728 30.861 30.602v.849c2.173.36 4.173 1.368 5.771 2.935 2.073 2.032 3.216 4.744 3.216 7.636 0 3.021-1.294 5.918-3.549 7.947-1.846 1.66-4.208 2.625-6.669 2.76-3.805 13.061-15.764 22.048-29.629 22.048zm-28.097-26.082c.917 0 1.73.631 1.945 1.542 2.846 12.093 13.6 20.539 26.151 20.539s23.305-8.446 26.151-20.539c.23-.98 1.172-1.623 2.157-1.531 1.972.211 3.858-.399 5.315-1.711 1.414-1.271 2.225-3.085 2.225-4.974 0-1.808-.716-3.505-2.016-4.778-1.314-1.289-3.103-1.964-4.931-1.938-.561-.009-1.057-.195-1.44-.571s-.601-.892-.601-1.429v-2.702c0-14.668-12.05-26.602-26.861-26.602s-26.861 11.934-26.861 26.602v2.702c0 .537-.217 1.053-.601 1.429s-.907.566-1.44.571c-1.844-.03-3.616.649-4.931 1.938-1.3 1.274-2.016 2.972-2.016 4.779 0 1.889.811 3.701 2.225 4.974 1.457 1.311 3.34 1.921 5.315 1.711.074-.008.144-.012.214-.012z" fill="#3762cc"/></g></g><g><g><path d="m161.886 174.5h-45.28c-9.647 0-17.467-7.82-17.467-17.467 0-9.647 7.82-17.467 17.467-17.467h29.638c8.639 0 15.642 7.003 15.642 15.642z" fill="#4671c6"/></g></g><g><g><path d="m161.886 176.5h-45.279c-10.734 0-19.468-8.732-19.468-19.467s8.733-19.468 19.468-19.468h29.638c9.728 0 17.642 7.914 17.642 17.642v19.293c-.001 1.104-.897 2-2.001 2zm-45.28-34.935c-8.529 0-15.468 6.938-15.468 15.468 0 8.528 6.938 15.467 15.468 15.467h43.279v-17.293c0-7.522-6.119-13.642-13.642-13.642z" fill="#3762cc"/></g></g><g><g><path d="m127.986 207.765c-1.205 0-2.259-.143-3.224-.435-1.601-.487-3.005-1.308-4.063-2.375-.583-.588-.579-1.538.01-2.121.587-.583 1.536-.579 2.121.01.708.715 1.678 1.273 2.804 1.615.677.206 1.446.306 2.352.306s1.675-.1 2.352-.306c1.124-.342 2.094-.9 2.803-1.615.582-.589 1.533-.593 2.121-.01.589.583.593 1.533.01 2.121-1.058 1.067-2.463 1.889-4.062 2.375-.964.292-2.019.435-3.224.435z" fill="#3762cc"/></g></g></g><g><g><g><g><path d="m206.361 119.566c-2.209 0-4-1.791-4-4v-17.049c0-.552-.448-1-1-1h-146.737c-.552 0-1 .448-1 1v16.649c0 2.209-1.791 4-4 4s-4-1.791-4-4v-16.649c0-4.963 4.037-9 9-9h146.737c4.963 0 9 4.037 9 9v17.049c0 2.209-1.791 4-4 4z" fill="#6bdddd"/></g></g></g><g><g><g><path d="m127.987 134.432c-2.209 0-4-1.791-4-4v-50.915c0-2.209 1.791-4 4-4s4 1.791 4 4v50.915c0 2.209-1.791 4-4 4z" fill="#6bdddd"/></g></g></g></g></g><g><g><path d="m170.57 50.545c0-23.511-19.059-42.57-42.57-42.57s-42.57 19.059-42.57 42.57c0 19.921 13.686 36.642 32.167 41.284l8.761 15.313c.727 1.27 2.558 1.27 3.284 0l8.761-15.313c18.482-4.642 32.167-21.362 32.167-41.284z" fill="#f9a7a7"/></g></g><g><g><path d="m128 110.095c-1.413 0-2.677-.732-3.378-1.959l-8.344-14.583c-19.384-5.265-32.848-22.827-32.848-43.008 0-24.576 19.994-44.57 44.57-44.57s44.57 19.994 44.57 44.57c0 20.181-13.464 37.743-32.849 43.008l-8.343 14.583c-.701 1.226-1.965 1.959-3.378 1.959zm0-100.12c-22.37 0-40.57 18.2-40.57 40.57 0 18.631 12.605 34.811 30.654 39.346.527.132.979.474 1.249.946l8.667 15.149 8.667-15.149c.271-.473.722-.814 1.249-.946 18.049-4.535 30.654-20.715 30.654-39.346 0-22.37-18.2-40.57-40.57-40.57z" fill="#3762cc"/></g></g><g><g><g><path d="m158.51 46.458c-1.213 0-2.2.929-2.314 2.113h-3.668c-.475-5.05-2.471-9.658-5.53-13.357l2.592-2.592c.973.802 2.308.679 3.13-.143.913-.912.913-2.392 0-3.304l-1.493-1.493-1.493-1.493c-.912-.912-2.392-.913-3.304 0-.858.858-.899 2.212-.143 3.13l-2.592 2.592c-3.699-3.059-8.306-5.055-13.356-5.53v-3.668c1.184-.115 2.112-1.1 2.112-2.314 0-1.291-1.046-2.337-2.337-2.337h-4.225c-1.291 0-2.337 1.046-2.337 2.337 0 1.214.929 2.2 2.113 2.314v3.668c-5.05.475-9.658 2.471-13.357 5.53l-2.592-2.592c.756-.918.716-2.272-.143-3.13-.912-.912-2.392-.913-3.304 0-.186.186-.038.038-2.988 2.987-.913.912-.913 2.392 0 3.304.822.822 2.157.945 3.13.143l2.592 2.592c-3.059 3.699-5.055 8.306-5.53 13.357h-3.668c-.114-1.184-1.1-2.113-2.314-2.113-1.291 0-2.337 1.046-2.337 2.337v4.225c0 1.291 1.046 2.336 2.337 2.336 1.214 0 2.2-.929 2.314-2.112h3.668c.475 5.05 2.471 9.658 5.53 13.357l-2.592 2.592c-.918-.756-2.272-.716-3.13.142-.912.913-.912 2.392 0 3.304.066.066 1.494 1.494 1.494 1.494.836.557 1.505 2.178 3.146 2.178.598 0 1.196-.228 1.652-.684.858-.858.899-2.212.143-3.13l2.592-2.592c3.699 3.059 8.306 5.055 13.357 5.53v3.668c-1.184.114-2.113 1.1-2.113 2.314 0 1.29 1.046 2.337 2.337 2.337h4.225c1.291 0 2.337-1.046 2.337-2.337 0-1.214-.929-2.199-2.112-2.314v-3.668c5.05-.475 9.658-2.471 13.357-5.53l2.592 2.592c-.756.918-.716 2.272.143 3.13.456.456 1.054.684 1.652.684s1.196-.228 1.652-.684l1.493-1.494 1.493-1.493c.912-.913.912-2.392 0-3.304-.858-.858-2.212-.899-3.13-.143l-2.592-2.592c3.059-3.699 5.055-8.306 5.53-13.357h3.668c.115 1.184 1.101 2.112 2.314 2.112 1.29 0 2.337-1.046 2.337-2.336v-4.225c-.002-1.292-1.048-2.338-2.338-2.338z" fill="#6bdddd"/></g></g><g><g><circle cx="128" cy="50.907" fill="#4671c6" r="18.773"/></g></g><g><g><g><circle cx="124.381" cy="46.641" fill="#e0ebfc" r="6.944"/></g></g><g><g><circle cx="134.699" cy="58.253" fill="#e0ebfc" r="3.863"/></g></g></g><g><g><path d="m141.536 47.03c-.821.821-2.152.821-2.974 0l-2.974-2.974c-.821-.821-.821-2.153 0-2.974.821-.821 2.152-.821 2.974 0l2.974 2.974c.821.822.821 2.153 0 2.974z" fill="#a4c9ff"/></g></g><g><g><path d="m122.719 61.9c-.821.821-2.152.821-2.974 0l-2.974-2.974c-.821-.821-.821-2.153 0-2.974.821-.821 2.153-.821 2.974 0l2.974 2.974c.821.822.821 2.153 0 2.974z" fill="#f9a7a7"/></g></g><g><g><path d="m130.112 85.753h-4.225c-2.392 0-4.337-1.945-4.337-4.336 0-1.577.837-2.962 2.112-3.718v-.506c-4.043-.661-7.854-2.238-11.185-4.631l-.356.356c.367 1.437-.021 3.007-1.136 4.122-.818.818-1.907 1.27-3.066 1.27-2.029 0-3.184-1.314-3.874-2.1-.135-.154-.32-.365-.396-.425-.109-.073-.196-.146-.289-.239l-1.494-1.494c-1.69-1.69-1.69-4.441 0-6.132 1.115-1.115 2.686-1.502 4.123-1.136l.355-.356c-2.392-3.33-3.971-7.142-4.631-11.186h-.506c-.756 1.276-2.141 2.113-3.718 2.113-2.391 0-4.336-1.945-4.336-4.337v-4.225c0-2.392 1.945-4.337 4.336-4.337 1.577 0 2.962.837 3.718 2.112h.506c.66-4.044 2.239-7.854 4.631-11.185l-.356-.356c-1.433.368-3.006-.02-4.122-1.136-1.689-1.691-1.689-4.441-.001-6.132l2.987-2.987c1.693-1.691 4.444-1.69 6.134-.001 1.115 1.114 1.503 2.686 1.135 4.122l.357.356c3.33-2.392 7.141-3.971 11.185-4.631v-.507c-1.275-.756-2.112-2.141-2.112-3.717 0-2.392 1.945-4.337 4.337-4.337h4.225c2.392 0 4.337 1.945 4.337 4.337 0 1.576-.837 2.961-2.112 3.717v.507c4.044.66 7.854 2.239 11.185 4.631l.357-.356c-.368-1.437.02-3.008 1.135-4.122 1.691-1.691 4.441-1.691 6.133 0l2.987 2.987c1.691 1.692 1.69 4.444-.002 6.134-1.113 1.114-2.681 1.504-4.12 1.135l-.356.356c2.392 3.33 3.971 7.141 4.631 11.185h.506c.756-1.275 2.141-2.112 3.718-2.112 2.391 0 4.336 1.945 4.336 4.337v4.225c0 2.392-1.945 4.337-4.336 4.337-1.577 0-2.962-.837-3.718-2.113h-.506c-.66 4.044-2.239 7.855-4.631 11.186l.356.357c1.439-.367 3.009.02 4.122 1.136.818.817 1.27 1.906 1.27 3.064.001 1.158-.45 2.247-1.27 3.066l-2.987 2.988c-.82.819-1.909 1.27-3.066 1.27-1.159 0-2.248-.451-3.066-1.27-1.115-1.115-1.503-2.686-1.136-4.122l-.356-.356c-3.33 2.393-7.142 3.97-11.185 4.631v.506c1.275.756 2.112 2.141 2.112 3.718-.002 2.392-1.947 4.337-4.339 4.337zm-17.805-17.848c.451 0 .903.151 1.274.459 3.505 2.897 7.748 4.654 12.27 5.079 1.027.097 1.813.959 1.813 1.991v3.668c0 1.03-.782 1.892-1.808 1.991-.147.014-.305.132-.305.323 0 .186.151.336.337.336h4.225c.186 0 .337-.15.337-.336 0-.191-.157-.31-.305-.323-1.025-.1-1.808-.961-1.808-1.991v-3.668c0-1.032.785-1.895 1.813-1.991 4.521-.425 8.765-2.182 12.27-5.079.793-.658 1.958-.604 2.688.127l2.592 2.592c.729.729.784 1.892.129 2.687-.094.114-.121.309.014.443.161.161.313.163.478-.002l2.986-2.986c.081-.081.098-.174.098-.237s-.017-.156-.098-.237c-.138-.136-.331-.107-.444-.014-.796.655-1.957.599-2.686-.13l-2.592-2.592c-.729-.729-.784-1.894-.127-2.688 2.897-3.505 4.654-7.748 5.08-12.271.097-1.027.959-1.813 1.991-1.813h3.667c1.03 0 1.892.782 1.991 1.808.014.148.132.306.323.306.186 0 .336-.151.336-.337v-4.225c0-.186-.15-.337-.336-.337-.191 0-.31.157-.323.305-.1 1.025-.961 1.808-1.991 1.808h-3.667c-1.032 0-1.895-.785-1.991-1.813-.426-4.522-2.183-8.765-5.08-12.27-.657-.795-.603-1.959.127-2.688l2.592-2.592c.729-.729 1.893-.785 2.686-.129.232.188.422.008.442-.013.083-.083.1-.176.1-.239s-.017-.157-.099-.239l-2.986-2.986c-.131-.131-.346-.131-.477 0-.135.135-.107.33-.013.444.654.795.599 1.957-.13 2.686l-2.592 2.592c-.729.729-1.895.785-2.688.127-3.505-2.897-7.747-4.654-12.27-5.08-1.027-.097-1.813-.959-1.813-1.991v-3.667c0-1.029.781-1.891 1.807-1.99.148-.015.306-.133.306-.324 0-.186-.151-.337-.337-.337h-4.225c-.186 0-.337.151-.337.337 0 .191.157.31.306.324 1.025.1 1.807.961 1.807 1.99v3.667c0 1.032-.785 1.895-1.813 1.991-4.522.426-8.765 2.183-12.27 5.08-.794.657-1.959.603-2.688-.127l-2.592-2.592c-.729-.729-.784-1.891-.13-2.686.095-.114.122-.31-.013-.444-.13-.13-.344-.133-.478.001l-2.986 2.987c-.131.13-.131.345.001.477.021.021.217.2.442.013.795-.653 1.958-.6 2.687.129l2.592 2.592c.729.729.784 1.894.127 2.688-2.897 3.505-4.654 7.747-5.08 12.27-.097 1.027-.959 1.813-1.991 1.813h-3.667c-1.03 0-1.892-.782-1.991-1.808-.014-.147-.132-.305-.323-.305-.186 0-.336.151-.336.337v4.225c0 .186.15.337.336.337.191 0 .31-.157.323-.306.1-1.025.961-1.808 1.991-1.808h3.667c1.032 0 1.895.785 1.991 1.813.426 4.522 2.183 8.766 5.08 12.271.657.795.603 1.959-.127 2.688l-2.592 2.592c-.729.729-1.893.783-2.688.129-.111-.094-.307-.121-.442.014-.131.131-.131.345 0 .476l1.382 1.382c.39.297.698.649.976.965.449.511.681.739.868.739.064 0 .157-.017.238-.098.135-.135.107-.329.014-.443-.655-.795-.6-1.958.129-2.687l2.592-2.592c.388-.39.9-.588 1.414-.588z" fill="#3762cc"/></g></g></g></g></svg>