<svg id="Layer_1" enable-background="new 0 0 256 256" height="512" viewBox="0 0 256 256" width="512" xmlns="http://www.w3.org/2000/svg"><g><g><g><path d="m104.12 19.569h17.169v126.841h-17.169z" fill="#e0ebfc"/></g></g><g><g><path d="m121.289 148.409h-17.169c-1.104 0-2-.896-2-2v-126.841c0-1.104.896-2 2-2h17.169c1.104 0 2 .896 2 2v126.841c0 1.105-.895 2-2 2zm-15.169-4h13.169v-122.841h-13.169z" fill="#3762cc"/></g></g><g><g><path d="m127.727 146.409h-30.045v-95.246c0-1.657 1.343-3 3-3h24.045c1.657 0 3 1.343 3 3z" fill="#a4c9ff"/></g></g><g><g><path d="m127.727 148.409h-30.045c-1.104 0-2-.896-2-2v-95.245c0-2.757 2.243-5 5-5h24.045c2.757 0 5 2.243 5 5v95.246c0 1.104-.896 1.999-2 1.999zm-28.045-4h26.045v-93.245c0-.551-.448-1-1-1h-24.045c-.552 0-1 .449-1 1z" fill="#3762cc"/></g></g><g><g><path d="m139.53 146.409h-53.652v-72.052c0-2.209 1.791-4 4-4h45.652c2.209 0 4 1.791 4 4z" fill="#4671c6"/></g></g><g><g><path d="m139.53 148.409h-53.652c-1.104 0-2-.896-2-2v-72.052c0-3.309 2.691-6 6-6h45.652c3.309 0 6 2.691 6 6v72.052c0 1.105-.895 2-2 2zm-51.652-4h49.652v-70.052c0-1.103-.897-2-2-2h-45.652c-1.103 0-2 .897-2 2z" fill="#3762cc"/></g></g><g><g><path d="m83.205 3.002c-4.758 0-8.58 4.011-8.267 8.837.285 4.404 4.138 7.734 8.551 7.734h82.431l15.196 15.196c1.172 1.172 3.071 1.172 4.243 0l7.475-7.474c1.172-1.172 1.172-3.071 0-4.243l-17.41-17.41c-1.688-1.688-3.977-2.636-6.364-2.636z" fill="#e0ebfc"/></g></g><g><g><path d="m183.236 37.647c-1.335 0-2.591-.52-3.535-1.464l-14.61-14.611h-81.603c-5.565 0-10.198-4.219-10.547-9.604-.187-2.878.793-5.618 2.758-7.714 1.938-2.067 4.674-3.252 7.506-3.252l85.854.004c2.938 0 5.7 1.144 7.777 3.222l17.41 17.41c1.949 1.95 1.949 5.122-.001 7.071l-7.475 7.474c-.942.944-2.198 1.464-3.534 1.464zm-100.031-32.645c-1.757 0-3.386.706-4.587 1.988-1.201 1.281-1.799 2.957-1.685 4.719.213 3.288 3.092 5.863 6.555 5.863h82.431c.53 0 1.039.211 1.414.586l15.196 15.196c.255.254.553.292.707.292.155 0 .452-.038.707-.292l7.475-7.475c.391-.39.391-1.025.001-1.415l-17.41-17.41c-1.322-1.322-3.08-2.05-4.949-2.05z" fill="#3762cc"/></g></g><g><g><path d="m38.917 108.133 6.598 126.096c.551 10.521 9.242 18.769 19.777 18.769h94.824c10.535 0 19.226-8.248 19.777-18.769l6.598-126.096c.523-9.996-7.441-18.387-17.45-18.387h-112.674c-10.009 0-17.973 8.391-17.45 18.387z" fill="#e0ebfc"/></g></g><g><g><path d="m65.292 241.195c-4.258 0-7.767-3.33-7.989-7.581l-6.599-126.097c-.17-3.24 2.412-5.967 5.663-5.967h112.674c3.245 0 5.833 2.721 5.663 5.967l-6.599 126.096c-.222 4.252-3.732 7.582-7.989 7.582z" fill="#a4c9ff"/></g></g><g><g><circle cx="107.682" cy="214.623" fill="#e0ebfc" r="10"/></g></g><g><g><circle cx="107.682" cy="154.623" fill="#e0ebfc" r="8.925"/></g></g><g><g><circle cx="127.682" cy="184.87" fill="#e0ebfc" r="8.5"/></g></g><g><g><circle cx="127.682" cy="126.87" fill="#e0ebfc" r="7.225"/></g></g><g><g><path d="m160.116 254.998h-94.824c-11.603 0-21.167-9.077-21.773-20.664l-6.599-126.097c-.282-5.388 1.608-10.51 5.322-14.423s8.73-6.068 14.125-6.068h112.674c5.396 0 10.412 2.155 14.126 6.069 3.714 3.913 5.604 9.035 5.321 14.422l-6.599 126.096c-.605 11.588-10.169 20.665-21.773 20.665zm-119.202-146.97 6.599 126.097c.495 9.461 8.305 16.873 17.779 16.873h94.824c9.476 0 17.284-7.412 17.779-16.874l6.599-126.096c.224-4.281-1.277-8.351-4.229-11.46-2.951-3.11-6.938-4.822-11.225-4.822h-112.673c-4.287 0-8.272 1.712-11.224 4.821-2.951 3.11-4.453 7.18-4.229 11.461z" fill="#3762cc"/></g></g><g><g><g><path d="m186.109 44.531-17.945 36.451c-4.684 9.515-3.068 20.927 4.074 28.767 10.233 11.233 27.909 11.233 38.142 0 7.142-7.84 8.758-19.252 4.074-28.767l-17.945-36.451c-2.124-4.314-8.276-4.314-10.4 0z" fill="#a4c9ff"/></g></g><g><g><path d="m191.31 120.175c-7.805 0-15.295-3.309-20.55-9.078-7.75-8.506-9.473-20.674-4.39-30.998l17.945-36.451c1.321-2.685 4.001-4.352 6.994-4.352 2.992 0 5.672 1.667 6.993 4.352l17.945 36.451c5.083 10.324 3.36 22.491-4.39 30.998-5.253 5.769-12.744 9.078-20.547 9.078zm-3.407-74.76-17.945 36.451c-4.351 8.838-2.876 19.255 3.759 26.538 4.499 4.939 10.911 7.771 17.593 7.771 6.681 0 13.093-2.833 17.592-7.771 6.635-7.283 8.109-17.699 3.759-26.538l-17.945-36.451c-.653-1.327-1.927-2.119-3.405-2.119-1.481 0-2.754.792-3.408 2.119z" fill="#3762cc"/></g></g></g><g><g><path d="m206.39 84.427h-9.763v-9.763c0-.928-.752-1.68-1.68-1.68h-7.278c-.928 0-1.68.752-1.68 1.68v9.763h-9.763c-.928 0-1.68.752-1.68 1.68v7.278c0 .928.752 1.68 1.68 1.68h9.763v9.763c0 .928.752 1.68 1.68 1.68h7.278c.928 0 1.68-.752 1.68-1.68v-9.763h9.763c.928 0 1.68-.752 1.68-1.68v-7.278c0-.928-.752-1.68-1.68-1.68z" fill="#f9a7a7"/></g></g><g><g><path d="m194.948 108.507h-7.278c-2.029 0-3.68-1.651-3.68-3.68v-7.763h-7.763c-2.029 0-3.68-1.65-3.68-3.679v-7.278c0-2.029 1.65-3.68 3.68-3.68h7.763v-7.763c0-2.029 1.65-3.68 3.68-3.68h7.278c2.029 0 3.68 1.651 3.68 3.68v7.763h7.763c2.029 0 3.68 1.651 3.68 3.68v7.278c0 2.029-1.65 3.679-3.68 3.679h-7.763v7.763c0 2.029-1.65 3.68-3.68 3.68zm-6.958-4h6.638v-9.442c0-1.104.896-2 2-2h9.442v-6.637h-9.442c-1.104 0-2-.896-2-2v-9.442h-6.638v9.442c0 1.104-.896 2-2 2h-9.442v6.637h9.442c1.104 0 2 .896 2 2zm18.401-18.08h.01z" fill="#3762cc"/></g></g></g></svg>