<svg id="Layer_1" enable-background="new 0 0 256 256" height="512" viewBox="0 0 256 256" width="512" xmlns="http://www.w3.org/2000/svg"><g><g><g><path d="m32.441 99.44v95.162c0 5.561 4.508 10.069 10.069 10.069h133.98c5.561 0 10.069-4.508 10.069-10.069v-95.162c.612 0 26.69 0 26.078 0 3.152 0 4.566-3.952 2.129-5.951l-100.075-82.107c-3.018-2.476-7.364-2.476-10.381 0l-100.076 82.107c-2.437 1.999-1.023 5.951 2.129 5.951z" fill="#a4c9ff"/></g></g><g><g><path d="m32.441 99.44v95.162c0 5.561 4.508 10.069 10.069 10.069h133.98c5.561 0 10.069-4.508 10.069-10.069v-95.162c.612 0 26.69 0 26.078 0 3.152 0 4.566-3.952 2.129-5.951l-100.075-82.107c-3.018-2.476-7.364-2.476-10.381 0l-100.076 82.107c-2.437 1.999-1.023 5.951 2.129 5.951z" fill="#a4c9ff"/></g></g><g><g><path d="m176.49 206.671h-133.98c-6.655 0-12.069-5.414-12.069-12.069v-93.162h-24.078c-2.292 0-4.271-1.395-5.043-3.552-.772-2.158-.126-4.492 1.646-5.945l100.075-82.108c3.742-3.07 9.176-3.07 12.918 0l100.076 82.107c1.771 1.454 2.417 3.787 1.646 5.945-.769 2.15-2.736 3.542-5.017 3.552-.004 0-.01 0-.015 0h-24.089v93.162c-.001 6.656-5.415 12.07-12.07 12.07zm-66.99-195.141c-1.393 0-2.786.466-3.922 1.398l-100.076 82.108c-.667.546-.513 1.235-.417 1.505s.415.899 1.278.899h26.079c1.104 0 2 .896 2 2v95.162c0 4.449 3.62 8.069 8.069 8.069h133.979c4.449 0 8.069-3.62 8.069-8.069v-95.162c0-1.104.896-2 2-2h26.079c.862 0 1.18-.629 1.277-.899s.25-.959-.417-1.505l-100.076-82.108c-1.136-.932-2.529-1.398-3.922-1.398z" fill="#3762cc"/></g></g><g><g><path d="m176.49 206.671h-133.98c-6.655 0-12.069-5.414-12.069-12.069v-93.162h-24.078c-2.292 0-4.271-1.395-5.043-3.552-.772-2.158-.126-4.492 1.646-5.945l100.075-82.108c3.742-3.07 9.176-3.07 12.918 0l100.076 82.107c1.771 1.454 2.417 3.787 1.646 5.945-.769 2.15-2.736 3.542-5.017 3.552-.004 0-.01 0-.015 0h-24.089v93.162c-.001 6.656-5.415 12.07-12.07 12.07zm-66.99-195.141c-1.393 0-2.786.466-3.922 1.398l-100.076 82.108c-.667.546-.513 1.235-.417 1.505s.415.899 1.278.899h26.079c1.104 0 2 .896 2 2v95.162c0 4.449 3.62 8.069 8.069 8.069h133.979c4.449 0 8.069-3.62 8.069-8.069v-95.162c0-1.104.896-2 2-2h26.079c.862 0 1.18-.629 1.277-.899s.25-.959-.417-1.505l-100.076-82.108c-1.136-.932-2.529-1.398-3.922-1.398z" fill="#3762cc"/></g></g><g><g><g><circle cx="71.657" cy="126.351" fill="#f9cfcf" r="20.972"/></g></g><g><g><path d="m96.362 184.84h-49.41v-12.811c0-13.644 11.061-24.705 24.705-24.705 13.644 0 24.705 11.061 24.705 24.705z" fill="#4671c6"/></g></g><g><g><path d="m71.657 149.324c-12.667 0-22.972-10.305-22.972-22.972s10.305-22.972 22.972-22.972 22.972 10.305 22.972 22.972-10.305 22.972-22.972 22.972zm0-41.945c-10.461 0-18.972 8.511-18.972 18.972s8.511 18.972 18.972 18.972 18.972-8.511 18.972-18.972-8.51-18.972-18.972-18.972z" fill="#3762cc"/></g></g><g><g><path d="m96.362 186.839h-49.41c-1.104 0-2-.896-2-2v-12.811c0-14.725 11.979-26.705 26.705-26.705s26.705 11.979 26.705 26.705v12.811c0 1.105-.895 2-2 2zm-47.409-4h45.41v-10.811c0-12.52-10.186-22.705-22.705-22.705s-22.705 10.185-22.705 22.705z" fill="#3762cc"/></g></g><g><g><circle cx="147.343" cy="126.351" fill="#f9cfcf" r="20.972"/></g></g><g><g><path d="m172.047 184.84h-49.41v-12.811c0-13.644 11.061-24.705 24.705-24.705 13.644 0 24.705 11.061 24.705 24.705z" fill="#f9a7a7"/></g></g><g><g><path d="m147.343 149.324c-12.667 0-22.972-10.305-22.972-22.972s10.305-22.972 22.972-22.972 22.972 10.305 22.972 22.972-10.305 22.972-22.972 22.972zm0-41.945c-10.461 0-18.972 8.511-18.972 18.972s8.511 18.972 18.972 18.972 18.972-8.511 18.972-18.972-8.511-18.972-18.972-18.972z" fill="#3762cc"/></g></g><g><g><path d="m172.047 186.839h-49.41c-1.104 0-2-.896-2-2v-12.811c0-14.725 11.98-26.705 26.705-26.705s26.705 11.979 26.705 26.705v12.811c0 1.105-.895 2-2 2zm-47.409-4h45.41v-10.811c0-12.52-10.185-22.705-22.705-22.705s-22.705 10.185-22.705 22.705z" fill="#3762cc"/></g></g><g><g><circle cx="109.5" cy="135.591" fill="#f9cfcf" r="17.659"/></g></g><g><g><path d="m130.302 184.84h-41.604v-10.787c0-11.489 9.313-20.802 20.802-20.802 11.489 0 20.802 9.313 20.802 20.802z" fill="#e0ebfc"/></g></g><g><g><path d="m109.5 155.25c-10.84 0-19.659-8.819-19.659-19.659s8.819-19.659 19.659-19.659 19.659 8.819 19.659 19.659-8.819 19.659-19.659 19.659zm0-35.318c-8.634 0-15.659 7.025-15.659 15.659s7.025 15.659 15.659 15.659 15.659-7.025 15.659-15.659-7.025-15.659-15.659-15.659z" fill="#3762cc"/></g></g><g><g><path d="m130.302 186.839h-41.604c-1.104 0-2-.896-2-2v-10.787c0-12.573 10.229-22.802 22.802-22.802s22.802 10.229 22.802 22.802v10.787c0 1.105-.895 2-2 2zm-39.604-4h37.604v-8.787c0-10.368-8.435-18.802-18.802-18.802s-18.802 8.435-18.802 18.802z" fill="#3762cc"/></g></g><g><g><g><g><path d="m95.413 58.157v-8.452c0-7.768 6.319-14.087 14.087-14.087s14.087 6.319 14.087 14.087v8.452h6.261v-8.452c0-11.22-9.128-20.348-20.348-20.348s-20.348 9.128-20.348 20.348v8.452z" fill="#e0ebfc"/></g></g><g><g><path d="m129.848 60.157h-6.261c-1.104 0-2-.896-2-2v-8.452c0-6.665-5.422-12.087-12.087-12.087s-12.087 5.422-12.087 12.087v8.452c0 1.104-.896 2-2 2h-6.261c-1.104 0-2-.896-2-2v-8.452c0-12.323 10.025-22.348 22.348-22.348s22.348 10.025 22.348 22.348v8.452c0 1.104-.896 2-2 2zm-4.261-4h2.261v-6.452c0-10.117-8.231-18.348-18.348-18.348s-18.348 8.231-18.348 18.348v6.452h2.261v-6.452c0-8.87 7.217-16.087 16.087-16.087s16.087 7.217 16.087 16.087z" fill="#3762cc"/></g></g><g><g><path d="m131.224 95.374h-43.448c-2.805 0-5.078-2.274-5.078-5.078v-29.905c0-2.805 2.274-5.078 5.078-5.078h43.447c2.805 0 5.078 2.274 5.078 5.078v29.905c.001 2.805-2.273 5.078-5.077 5.078z" fill="#6bdddd"/></g></g><g><g><path d="m131.224 97.375h-43.448c-3.903 0-7.079-3.175-7.079-7.078v-29.906c0-3.903 3.175-7.078 7.079-7.078h43.447c3.903 0 7.079 3.175 7.079 7.078v29.906c0 3.902-3.175 7.078-7.078 7.078zm-43.448-40.062c-1.698 0-3.079 1.381-3.079 3.078v29.906c0 1.697 1.381 3.078 3.079 3.078h43.447c1.698 0 3.079-1.381 3.079-3.078v-29.906c0-1.697-1.381-3.078-3.079-3.078z" fill="#3762cc"/></g></g><g><g><path d="m115.412 70c0-3.653-3.341-6.527-7.134-5.731-2.2.462-3.982 2.233-4.454 4.431-.55 2.56.573 4.914 2.48 6.184v8.24c0 1.757 1.315 3.331 3.07 3.423 1.871.098 3.419-1.39 3.419-3.239v-8.424c1.577-1.051 2.619-2.845 2.619-4.884z" fill="#e0ebfc"/></g></g><g><g><path d="m109.552 88.552c-.094 0-.188-.002-.284-.008-2.784-.146-4.965-2.526-4.965-5.42v-7.264c-2.099-1.874-3.046-4.738-2.436-7.58.634-2.95 3.045-5.348 5.999-5.968 2.367-.497 4.786.08 6.635 1.581s2.91 3.728 2.91 6.108c0 2.258-.962 4.377-2.62 5.859v7.448c0 1.432-.596 2.818-1.634 3.804-.985.934-2.256 1.44-3.605 1.44zm.001-22.417c-.285 0-.574.03-.865.091-1.433.3-2.602 1.463-2.909 2.893-.418 1.943.569 3.392 1.633 4.099.557.371.892.996.892 1.665v8.24c0 .74.538 1.393 1.174 1.426.464.021.781-.203.926-.34.25-.238.388-.558.388-.903v-8.423c0-.669.334-1.294.892-1.665 1.083-.72 1.729-1.923 1.729-3.219 0-1.17-.521-2.264-1.431-3.002-.7-.567-1.541-.862-2.429-.862z" fill="#3762cc"/></g></g></g></g></g><g><g><circle cx="197.125" cy="195.65" fill="#6bdddd" r="55.875"/></g></g><g><g><circle cx="197.125" cy="195.65" fill="#4671c6" r="43.875"/></g></g><g><g><path d="m207.271 33.662c-7.888-7.888-10.365-19.165-7.44-29.187-4.6 1.342-8.936 3.82-12.556 7.44-11.509 11.509-11.509 30.234 0 41.743s30.234 11.509 41.743 0c3.621-3.621 6.098-7.957 7.44-12.556-10.021 2.925-21.298.448-29.187-7.44z" fill="#ffea92"/></g></g><g><g><g><path d="m197.125 160.859c-1.105 0-2-.895-2-2v-5.083c0-1.105.895-2 2-2 1.105 0 2 .895 2 2v5.083c0 1.104-.895 2-2 2z" fill="#e0ebfc"/></g></g></g><g><g><g><path d="m197.125 239.525c-1.105 0-2-.895-2-2v-5.083c0-1.105.895-2 2-2 1.105 0 2 .895 2 2v5.083c0 1.105-.895 2-2 2z" fill="#e0ebfc"/></g></g></g><g><g><g><path d="m239 197.65h-5.083c-1.105 0-2-.895-2-2 0-1.105.895-2 2-2h5.083c1.105 0 2 .895 2 2 0 1.105-.895 2-2 2z" fill="#e0ebfc"/></g></g></g><g><g><g><path d="m160.333 197.65h-5.083c-1.105 0-2-.895-2-2 0-1.105.895-2 2-2h5.083c1.105 0 2 .895 2 2 0 1.105-.895 2-2 2z" fill="#e0ebfc"/></g></g></g><g><g><g><path d="m197.125 199.15h-18.125c-1.933 0-3.5-1.567-3.5-3.5s1.567-3.5 3.5-3.5h14.625v-20.292c0-1.933 1.567-3.5 3.5-3.5s3.5 1.567 3.5 3.5v23.792c0 1.933-1.567 3.5-3.5 3.5z" fill="#e0ebfc"/></g></g></g><g><g><path d="m197.125 253.525c-31.913 0-57.875-25.962-57.875-57.875s25.962-57.875 57.875-57.875 57.875 25.962 57.875 57.875-25.962 57.875-57.875 57.875zm0-111.75c-29.707 0-53.875 24.168-53.875 53.875s24.168 53.875 53.875 53.875 53.875-24.169 53.875-53.875-24.168-53.875-53.875-53.875z" fill="#3762cc"/></g></g><g><g><path d="m197.125 241.525c-25.295 0-45.875-20.58-45.875-45.875s20.58-45.875 45.875-45.875 45.875 20.579 45.875 45.875-20.58 45.875-45.875 45.875zm0-87.75c-23.09 0-41.875 18.785-41.875 41.875s18.785 41.875 41.875 41.875 41.875-18.785 41.875-41.875-18.785-41.875-41.875-41.875z" fill="#3762cc"/></g></g><g><g><path d="m208.146 64.289c-8.072 0-16.141-3.071-22.286-9.216-12.288-12.288-12.289-32.283 0-44.571 3.725-3.725 8.362-6.473 13.41-7.946.7-.205 1.458-.01 1.974.506s.71 1.273.506 1.975c-2.826 9.682-.168 20.108 6.935 27.212 7.103 7.103 17.53 9.759 27.212 6.935.702-.205 1.458-.011 1.975.506.517.516.71 1.273.506 1.974-1.473 5.048-4.221 9.686-7.946 13.41-6.143 6.142-14.216 9.214-22.286 9.215zm-11.077-56.685c-3.113 1.367-5.965 3.311-8.38 5.725-10.729 10.729-10.729 28.187 0 38.915s28.186 10.728 38.915 0c2.414-2.415 4.358-5.267 5.725-8.38-9.983 1.658-20.232-1.548-27.472-8.789-7.239-7.239-10.448-17.491-8.788-27.471z" fill="#3762cc"/></g></g></g></svg>