<svg id="Layer_1" enable-background="new 0 0 256 256" height="512" viewBox="0 0 256 256" width="512" xmlns="http://www.w3.org/2000/svg"><g><g><g><path d="m175.802 163.319h-95.604c-15.529 0-28.119 12.589-28.119 28.118v35.287h22.877v26.276h104.601v-26.275h24.362c0-13.174 0-22.058 0-35.287.001-15.53-12.588-28.119-28.117-28.119z" fill="#4671c6"/></g></g><g><g><path d="m52.08 226.725h22.877v26.275h-22.877z" fill="#f9cfcf"/></g></g><g><g><path d="m74.957 255h-22.877c-1.104 0-2-.896-2-2v-26.275c0-1.104.896-2 2-2h22.877c1.104 0 2 .896 2 2v26.275c0 1.104-.895 2-2 2zm-20.877-4h18.877v-22.275h-18.877z" fill="#3762cc"/></g></g><g><g><path d="m179.558 226.725h24.362v26.275h-24.362z" fill="#f9cfcf"/></g></g><g><g><path d="m203.92 255h-24.362c-1.104 0-2-.896-2-2v-26.275c0-1.104.896-2 2-2h24.362c1.104 0 2 .896 2 2v26.275c0 1.104-.896 2-2 2zm-22.362-4h20.362v-22.275h-20.362z" fill="#3762cc"/></g></g><g><g><path d="m179.558 228.725c-1.104 0-2-.896-2-2v-18.565c0-1.104.896-2 2-2s2 .896 2 2v18.565c0 1.105-.896 2-2 2z" fill="#3762cc"/></g></g><g><g><path d="m99.884 138.858v26.711.003c0 15.513 12.576 28.089 28.089 28.089 15.506 0 28.089-12.567 28.089-28.092 0-5.403 0-21.126 0-26.711z" fill="#f9cfcf"/></g></g><g><g><path d="m179.558 255h-104.601c-1.104 0-2-.896-2-2v-24.275h-20.877c-1.104 0-2-.896-2-2v-35.287c0-16.607 13.511-30.119 30.118-30.119h17.686v-22.461c0-1.104.896-2 2-2h56.178c1.104 0 2 .896 2 2v22.461h17.74c16.607 0 30.118 13.511 30.118 30.119v35.287c0 1.104-.896 2-2 2h-22.362v24.275c0 1.104-.896 2-2 2zm-102.601-4h100.601v-24.275c0-1.104.896-2 2-2h22.362v-33.287c0-14.402-11.717-26.119-26.118-26.119h-19.74c-1.104 0-2-.896-2-2v-22.461h-52.178v22.461c0 1.104-.896 2-2 2h-19.686c-14.401 0-26.118 11.717-26.118 26.119v33.287h20.877c1.104 0 2 .896 2 2z" fill="#3762cc"/></g></g><g><g><path d="m128 143.582c-36.378 0-65.868-29.49-65.868-65.868v-27.59c0-9.144 7.413-16.557 16.557-16.557h115.18v44.146c-.001 36.378-29.491 65.869-65.869 65.869z" fill="#4671c6"/></g></g><g><g><path d="m128 145.582c-37.423 0-67.868-30.445-67.868-67.868v-27.589c0-10.232 8.324-18.557 18.557-18.557h115.18c1.104 0 2 .896 2 2v44.146c-.001 37.422-30.446 67.868-67.869 67.868zm-49.312-110.014c-8.026 0-14.557 6.53-14.557 14.557v27.589c0 35.217 28.651 63.868 63.868 63.868s63.868-28.651 63.868-63.868v-42.146z" fill="#3762cc"/></g></g><g><g><path d="m184.1 82.166v-5.253c0-30.704-25.117-55.595-56.1-55.595-30.983 0-56.1 24.891-56.1 55.595v5.253c-9.741-.198-17.47 7.563-17.47 16.943 0 10.017 8.745 17.94 18.952 16.861 5.79 24.597 28.039 42.922 54.619 42.922 26.582 0 48.829-18.327 54.619-42.922 10.193 1.078 18.952-6.83 18.952-16.861-.002-9.385-7.736-17.141-17.472-16.943z" fill="#f9cfcf"/></g></g><g><g><path d="m128 160.892c-26.575 0-49.428-17.525-56.155-42.829-4.828.063-9.542-1.67-13.141-4.908-3.987-3.588-6.274-8.708-6.274-14.046 0-5.11 2.019-9.903 5.685-13.495 3.208-3.143 7.335-5.016 11.785-5.385v-3.316c0-31.758 26.063-57.595 58.101-57.595s58.101 25.837 58.101 57.595v3.316c4.451.369 8.576 2.242 11.785 5.386 3.666 3.592 5.685 8.384 5.685 13.494 0 5.338-2.286 10.457-6.273 14.044-3.599 3.238-8.326 4.955-13.142 4.91-6.73 25.304-29.583 42.829-56.157 42.829zm-54.616-46.922c.917 0 1.73.631 1.945 1.542 5.733 24.364 27.393 41.38 52.671 41.38 25.277 0 46.937-17.016 52.671-41.38.23-.981 1.173-1.645 2.157-1.531 4.312.456 8.604-.931 11.793-3.801 3.146-2.83 4.949-6.865 4.949-11.071 0-4.026-1.593-7.804-4.484-10.637-2.92-2.861-6.823-4.387-10.944-4.307-.534.025-1.057-.195-1.44-.571-.384-.376-.601-.891-.601-1.429v-5.253c0-29.553-24.27-53.595-54.101-53.595s-54.101 24.043-54.101 53.596v5.253c0 .538-.217 1.052-.601 1.429-.384.375-.896.599-1.44.571-4.108-.065-8.024 1.445-10.944 4.306-2.892 2.834-4.484 6.612-4.484 10.638 0 4.206 1.805 8.241 4.95 11.072 3.188 2.869 7.482 4.252 11.792 3.799.07-.008.141-.011.212-.011z" fill="#3762cc"/></g></g><g><g><path d="m193.868 71.383h-88.015c-18.752 0-33.953-15.201-33.953-33.953 0-18.752 15.201-33.953 33.953-33.953h57.611c16.792 0 30.404 13.612 30.404 30.404z" fill="#4671c6"/></g></g><g><g><path d="m193.868 73.382h-88.016c-19.824 0-35.953-16.128-35.953-35.953s16.129-35.953 35.954-35.953h57.611c17.868 0 32.404 14.537 32.404 32.404v37.502c0 1.105-.895 2-2 2zm-88.015-67.906c-17.619 0-31.953 14.334-31.953 31.954s14.334 31.953 31.953 31.953h86.016v-35.503c0-15.662-12.742-28.404-28.404-28.404z" fill="#3762cc"/></g></g><g><g><path d="m94.097 112.23c-.704 0-1.387-.372-1.751-1.031-.536-.966-.187-2.184.78-2.719l12.925-7.16-12.925-7.16c-.967-.535-1.316-1.752-.781-2.719.536-.966 1.755-1.314 2.719-.78l16.084 8.909c.637.353 1.031 1.022 1.031 1.75s-.395 1.397-1.031 1.75l-16.084 8.91c-.307.169-.64.25-.967.25z" fill="#3762cc"/></g></g><g><g><path d="m162.913 112.23c-.328 0-.66-.081-.967-.251l-16.084-8.91c-.637-.353-1.031-1.022-1.031-1.75s.395-1.397 1.031-1.75l16.084-8.909c.968-.535 2.184-.185 2.719.78.535.966.186 2.184-.781 2.719l-12.925 7.16 12.925 7.16c.967.535 1.316 1.752.78 2.719-.364.66-1.047 1.032-1.751 1.032z" fill="#3762cc"/></g></g><g><g><ellipse cx="128" cy="130.051" fill="#f9a7a7" rx="12.39" ry="13.009"/></g></g><g><g><path d="m62.226 198.561-10.146 54.439h47.804v-54.439z" fill="#f9cfcf"/></g></g><g><g><path d="m101.445 208.16h-28.344c-6.058 0-10.969-4.911-10.969-10.969v-34.942c0-6.058 4.911-10.969 10.969-10.969h28.344c6.058 0 10.969 4.911 10.969 10.969v34.942c0 6.058-4.911 10.969-10.969 10.969z" fill="#f9cfcf"/></g></g><g><g><path d="m99.884 255h-47.804c-.595 0-1.158-.265-1.538-.722-.38-.458-.537-1.06-.428-1.645l10.018-53.751v-36.633c0-7.151 5.817-12.969 12.969-12.969h28.345c7.151 0 12.969 5.818 12.969 12.969v34.941c0 7.004-5.581 12.73-12.53 12.962v42.848c-.001 1.104-.897 2-2.001 2zm-45.397-4h43.396v-42.84c0-1.104.896-2 2-2h1.562c4.945 0 8.969-4.023 8.969-8.969v-34.941c0-4.946-4.023-8.969-8.969-8.969h-28.344c-4.945 0-8.969 4.023-8.969 8.969v36.818c0 .123-.012.246-.034.366z" fill="#3762cc"/></g></g><g><g><path d="m99.884 210.16h-12.612c-1.104 0-2-.896-2-2s.896-2 2-2h12.611c1.104 0 2 .896 2 2s-.895 2-1.999 2z" fill="#3762cc"/></g></g><g><g><path d="m171.988 162.405c1.082-1.767 1.717-3.839 1.717-6.063 0-6.429-5.211-11.64-11.64-11.64-6.024 0-10.979 4.576-11.579 10.441-.723-.14-1.468-.219-2.233-.219-6.429 0-11.64 5.212-11.64 11.64s5.211 11.64 11.64 11.64c1.275 0 2.499-.212 3.647-.591 2.21 3.732 6.265 6.242 10.917 6.242 7.009 0 12.692-5.682 12.692-12.692.001-3.399-1.344-6.479-3.521-8.758z" fill="#e0ebfc"/></g></g><g><g><g><path d="m148.312 151.785c-.65 0-1.296-.28-1.741-.822l-7.181-8.73c-.79-.961-.652-2.38.309-3.171.96-.79 2.38-.653 3.171.309l7.181 8.73c.79.961.652 2.38-.309 3.171-.419.345-.926.513-1.43.513z" fill="#e0ebfc"/></g></g></g><g><g><g><path d="m138.246 150.856c-.65 0-1.296-.28-1.741-.822l-7.181-8.73c-.79-.961-.652-2.38.309-3.171.96-.79 2.38-.653 3.171.309l7.181 8.73c.79.961.652 2.38-.309 3.171-.419.345-.926.513-1.43.513z" fill="#e0ebfc"/></g></g></g></g></svg>