<svg id="Layer_1" enable-background="new 0 0 256 256" height="512" viewBox="0 0 256 256" width="512" xmlns="http://www.w3.org/2000/svg"><g><g><g><g><path d="m128.195 3c1.291 0 2.574.035 3.85.097-1.275-.064-2.558-.097-3.85-.097z" fill="#e0ebfc"/></g></g><g><g><path d="m128.195 3c-1.291 0-2.575.033-3.85.097 1.276-.062 2.559-.097 3.85-.097z" fill="#e0ebfc"/></g></g><g><g><path d="m186.088 170.402c-2.735-.901-4.863-3.091-5.691-5.857-.825-2.754-.256-5.737 1.522-7.98 3.244-4.091 6.007-8.546 8.213-13.241 2.847-6.058 4.453-12.806 4.773-20.056l.667-15.12c.941-21.265.941-21.265.921-25.128-.241-42.971-32.713-70.216-68.298-70.216-34.448 0-68.054 26.046-68.298 70.216-.02 3.856-.02 3.856.917 25.044l.671 15.205c.32 7.249 1.925 13.997 4.773 20.056 2.206 4.694 4.969 9.149 8.213 13.241 1.779 2.243 2.348 5.226 1.522 7.98-.828 2.766-2.956 4.956-5.691 5.857-12.616 4.157-21.092 15.881-21.092 29.173v53.424h157.97v-53.425c0-13.292-8.476-25.016-21.092-29.173z" fill="#e0ebfc"/></g></g></g><g><g><g><path d="m216.984 253h-9.804v-53.425c0-13.292-8.476-25.016-21.092-29.173-2.735-.901-4.863-3.091-5.691-5.857-.825-2.754-.256-5.737 1.522-7.98 3.244-4.091 6.007-8.546 8.213-13.241 2.847-6.058 4.453-12.806 4.773-20.056l.667-15.12c.941-21.265.941-21.265.921-25.128-.239-43.499-33.231-70.216-68.298-70.216-34.438 0-68.055 26.034-68.298 70.216-.02 3.856-.02 3.856.917 25.044l.671 15.205c.32 7.249 1.925 13.997 4.773 20.056 2.206 4.694 4.969 9.149 8.213 13.241 1.779 2.243 2.348 5.226 1.522 7.98-.828 2.766-2.956 4.956-5.691 5.857-12.616 4.157-21.092 15.881-21.092 29.173v53.424h-9.804v-53.425c0-17.07 10.6-32.181 26.519-38.029-3.341-4.375-6.212-9.097-8.541-14.052-3.401-7.238-5.317-15.243-5.694-23.794l-.671-15.203c-.948-21.43-.948-21.43-.927-25.528.274-48.626 37.395-79.969 78.103-79.969 39.805 0 77.824 30.358 78.102 79.969.021 4.105.021 4.105-.931 25.612l-.667 15.118c-.377 8.551-2.293 16.557-5.694 23.794-2.329 4.956-5.199 9.677-8.541 14.053 15.92 5.848 26.519 20.958 26.519 38.029v53.425z" fill="#a4c9ff"/></g></g></g><g><g><g><path d="m169.751 175.273h-83.111c-13.5 0-24.444 10.969-24.444 24.5v30.746h21.735v22.481h88.531v-22.482h21.735c0-11.479 0-19.219 0-30.746-.002-13.53-10.946-24.499-24.446-24.499z" fill="#4671c6"/></g></g><g><g><path d="m103.263 153.959v23.274.003c0 13.517 10.933 24.474 24.419 24.474 13.48 0 24.419-10.95 24.419-24.477 0-4.708 0-18.407 0-23.274z" fill="#f9cfcf"/></g></g><g><g><path d="m62.195 230.518h21.735v22.482h-21.735z" fill="#f9cfcf"/></g></g><g><g><path d="m172.461 230.518h21.735v22.482h-21.735z" fill="#f9cfcf"/></g></g><g><g><path d="m194.195 255h-132c-1.104 0-2-.896-2-2v-53.228c0-14.612 11.863-26.5 26.444-26.5h14.623v-19.314c0-1.104.896-2 2-2h48.838c1.104 0 2 .896 2 2v19.314h15.65c14.581 0 26.444 11.888 26.444 26.5v53.228c.001 1.104-.894 2-1.999 2zm-130-4h128v-51.228c0-12.406-10.068-22.5-22.444-22.5h-17.65c-1.104 0-2-.896-2-2v-19.314h-44.838v19.314c0 1.104-.896 2-2 2h-16.623c-12.376 0-22.444 10.093-22.444 22.5v51.228z" fill="#3762cc"/></g></g><g><g><path d="m129.265 158.075h-2.139c-31.034 0-56.192-25.158-56.192-56.192v-25.539c0-7.801 6.324-14.124 14.124-14.124h100.399v39.664c0 31.033-25.158 56.191-56.192 56.191z" fill="#4671c6"/></g></g><g><g><path d="m129.265 160.075h-2.139c-32.087 0-58.192-26.105-58.192-58.192v-25.54c0-8.891 7.233-16.125 16.125-16.125h100.398c1.104 0 2 .896 2 2v39.664c0 32.088-26.105 58.193-58.192 58.193zm-44.206-95.856c-6.686 0-12.125 5.439-12.125 12.125v25.54c0 29.881 24.311 54.192 54.192 54.192h2.139c29.882 0 54.192-24.311 54.192-54.192v-37.665z" fill="#3762cc"/></g></g><g><g><path d="m176.965 104.563v-4.577c0-26.753-21.835-48.44-48.77-48.44-26.935 0-48.77 21.687-48.77 48.44v4.577c-8.469-.172-15.187 6.589-15.187 14.763 0 8.728 7.602 15.631 16.475 14.691 5.033 21.432 24.375 37.398 47.482 37.398 23.109 0 42.449-15.969 47.482-37.398 8.861.939 16.475-5.951 16.475-14.691.001-8.177-6.723-14.935-15.187-14.763z" fill="#f9cfcf"/></g></g><g><g><path d="m128.195 173.416c-23.153 0-43.074-15.259-49.019-37.315-.016 0-.031 0-.047 0-4.172 0-8.225-1.532-11.337-4.333-3.53-3.176-5.555-7.711-5.555-12.442 0-4.528 1.787-8.774 5.033-11.954 2.773-2.717 6.322-4.359 10.154-4.731v-2.655c0-27.813 22.775-50.44 50.77-50.44s50.771 22.627 50.771 50.44v2.655c3.832.372 7.38 2.014 10.153 4.731 3.246 3.18 5.033 7.425 5.033 11.954 0 4.731-2.024 9.266-5.554 12.441-3.113 2.8-7.166 4.333-11.337 4.333-.016 0-.031 0-.047 0-5.943 22.056-25.864 37.316-49.018 37.316zm-47.479-41.399c.918 0 1.731.631 1.945 1.543 4.958 21.111 23.683 35.855 45.534 35.855 21.853 0 40.577-14.745 45.535-35.856.23-.981 1.159-1.638 2.158-1.531 3.661.386 7.319-.791 10.034-3.234 2.688-2.418 4.229-5.869 4.229-9.468 0-3.444-1.361-6.675-3.832-9.097-2.486-2.436-5.806-3.75-9.313-3.667-.524.011-1.057-.195-1.44-.571-.384-.376-.601-.891-.601-1.429v-4.577c0-25.607-20.981-46.44-46.771-46.44s-46.77 20.833-46.77 46.44v4.577c0 .538-.217 1.052-.601 1.429s-.919.584-1.44.571c-3.502-.081-6.828 1.23-9.314 3.667-2.471 2.421-3.832 5.652-3.832 9.097 0 3.599 1.542 7.05 4.23 9.468 2.755 2.479 6.317 3.629 10.034 3.234.073-.007.145-.011.215-.011z" fill="#3762cc"/></g></g><g><g><path d="m185.457 95.168h-77.047c-16.008 0-28.984-12.977-28.984-28.984-.001-18.496 13.878-30.184 28.984-30.184h51.093c14.334 0 25.955 11.62 25.955 25.955v33.213z" fill="#4671c6"/></g></g><g><g><path d="m185.457 97.167h-77.047c-17.085 0-30.984-13.899-30.984-30.984 0-19.575 14.803-32.183 30.984-32.183h51.092c15.414 0 27.955 12.541 27.955 27.955v33.213c0 1.104-.895 1.999-2 1.999zm-77.047-59.167c-13.826 0-26.984 10.649-26.984 28.183 0 14.879 12.105 26.984 26.984 26.984h75.047v-31.212c0-13.208-10.746-23.955-23.955-23.955z" fill="#3762cc"/></g></g><g><g><path d="m93.471 136.017h-12.757c-1.104 0-2-.896-2-2s.896-2 2-2h9.587l-12.681-26.593c-.475-.997-.052-2.191.945-2.666.993-.474 2.189-.053 2.666.944l14.045 29.454c.295.62.252 1.348-.114 1.928s-1.005.933-1.691.933z" fill="#3762cc"/></g></g><g><g><path d="m175.676 136.017h-12.758c-.687 0-1.325-.352-1.691-.933s-.409-1.309-.114-1.928l14.046-29.454c.477-.998 1.67-1.418 2.667-.944.996.476 1.419 1.669.944 2.666l-12.682 26.593h9.588c1.104 0 2 .896 2 2s-.896 2-2 2z" fill="#3762cc"/></g></g><g><g><path d="m93.471 156.968c8.841 8.916 21.129 14.447 34.724 14.447s25.882-5.531 34.722-14.446v-22.953h-69.446z" fill="#e0ebfc"/></g></g><g><g><g><path d="m144.4 144.934h-32.409c-1.063 0-1.925-.864-1.925-1.93s.862-1.93 1.925-1.93h32.409c1.063 0 1.925.864 1.925 1.93s-.862 1.93-1.925 1.93z" fill="#a4c9ff"/></g></g></g><g><g><g><path d="m144.4 153.287h-32.409c-1.063 0-1.925-.864-1.925-1.93s.862-1.93 1.925-1.93h32.409c1.063 0 1.925.864 1.925 1.93s-.862 1.93-1.925 1.93z" fill="#a4c9ff"/></g></g></g><g><g><g><path d="m144.4 161.64h-32.409c-1.063 0-1.925-.864-1.925-1.93s.862-1.93 1.925-1.93h32.409c1.063 0 1.925.864 1.925 1.93s-.862 1.93-1.925 1.93z" fill="#a4c9ff"/></g></g></g><g><g><path d="m128.195 173.416c-13.69 0-26.527-5.341-36.145-15.039-.372-.375-.58-.881-.58-1.408v-22.951c0-1.104.896-2 2-2h69.447c1.104 0 2 .896 2 2v22.953c0 .527-.208 1.034-.58 1.408-9.616 9.696-22.451 15.037-36.142 15.037zm-32.724-17.281c8.794 8.571 20.382 13.281 32.725 13.281 12.342 0 23.93-4.709 32.723-13.279v-20.119h-65.448z" fill="#3762cc"/></g></g><g><g><path d="m83.93 255c-1.104 0-2-.896-2-2v-38.864c0-1.104.896-2 2-2s2 .896 2 2v38.864c0 1.104-.896 2-2 2z" fill="#3762cc"/></g></g><g><g><path d="m172.461 255c-1.104 0-2-.896-2-2v-38.864c0-1.104.896-2 2-2s2 .896 2 2v38.864c0 1.104-.896 2-2 2z" fill="#3762cc"/></g></g><g><g><path d="m83.93 255h-21.735c-1.104 0-2-.896-2-2v-22.481c0-1.104.896-2 2-2h21.735c1.104 0 2 .896 2 2v22.481c0 1.104-.896 2-2 2zm-19.735-4h17.735v-18.481h-17.735z" fill="#3762cc"/></g></g><g><g><path d="m194.195 255h-21.734c-1.104 0-2-.896-2-2v-22.481c0-1.104.896-2 2-2h21.734c1.104 0 2 .896 2 2v22.481c0 1.104-.895 2-2 2zm-19.734-4h17.734v-18.481h-17.734z" fill="#3762cc"/></g></g><g><g><path d="m153.63 128.587h-.23c-3.341 0-6.049-2.708-6.049-6.049v-6.812c0-3.341 2.708-6.049 6.049-6.049h.23c3.341 0 6.049 2.708 6.049 6.049v6.812c0 3.341-2.708 6.049-6.049 6.049z" fill="#3762cc"/></g></g><g><g><path d="m102.979 128.587h-.23c-3.341 0-6.049-2.708-6.049-6.049v-6.812c0-3.341 2.708-6.049 6.049-6.049h.23c3.341 0 6.049 2.708 6.049 6.049v6.812c0 3.341-2.709 6.049-6.049 6.049z" fill="#3762cc"/></g></g></g><g><g><g><path d="m52.76 150.488c-.905 0-1.641.693-1.726 1.576h-2.74c-.355-3.767-1.84-7.205-4.122-9.963l1.934-1.934c1.706 1.405 3.885-1.021 2.335-2.571-.03-.03-1.12-1.12-1.114-1.114-.006-.006-1.108-1.108-1.114-1.114-.681-.681-1.784-.681-2.465 0-.64.64-.671 1.65-.107 2.335l-1.934 1.934c-2.759-2.282-6.196-3.768-9.964-4.122v-2.74c.883-.085 1.576-.821 1.576-1.726 0-.963-.781-1.743-1.743-1.743h-3.152c-.963 0-1.743.78-1.743 1.743 0 .905.693 1.641 1.576 1.726v2.74c-3.767.355-7.204 1.841-9.963 4.122l-1.934-1.934c1.404-1.705-1.021-3.885-2.571-2.335l-1.114 1.114v.001l-1.114 1.114c-.681.681-.681 1.784 0 2.465.34.34.786.511 1.233.511.393 0 .782-.14 1.102-.404l1.934 1.934c-2.282 2.759-3.768 6.196-4.122 9.964h-2.741c-.085-.883-.821-1.576-1.726-1.576-.963 0-1.743.78-1.743 1.743v3.152c0 .963.78 1.743 1.743 1.743.906 0 1.641-.693 1.726-1.576h2.739c.355 3.767 1.84 7.205 4.122 9.964l-1.934 1.934c-1.705-1.405-3.885 1.022-2.335 2.571l1.114 1.114c0 .001.001.001.001.001.751.751 1.373 1.624 2.346 1.624.446 0 .892-.17 1.233-.51.64-.64.67-1.65.106-2.335l1.934-1.934c2.759 2.282 6.196 3.767 9.964 4.122v2.74c-.883.085-1.576.821-1.576 1.726 0 .963.78 1.743 1.743 1.743h3.152c.963 0 1.743-.78 1.743-1.743 0-.905-.693-1.641-1.576-1.726v-2.74c3.767-.355 7.205-1.841 9.964-4.122l1.934 1.934c-.564.685-.534 1.695.107 2.335.34.34.786.51 1.232.51.973 0 1.596-.874 2.347-1.625 10 0-7.071 7.071 0 0l1.114-1.114c.681-.681.681-1.784 0-2.465-.64-.64-1.65-.67-2.335-.106l-1.934-1.934c2.282-2.759 3.768-6.196 4.122-9.964h2.74c.085.883.821 1.576 1.726 1.576.963 0 1.743-.78 1.743-1.743v-3.152c0-.966-.781-1.746-1.743-1.746z" fill="#6bdddd"/></g></g><g><g><circle cx="30" cy="153.807" fill="#4671c6" r="14.005"/></g></g><g><g><g><circle cx="27.031" cy="150.306" fill="#a4c9ff" r="5.698"/></g></g><g><g><circle cx="35.497" cy="159.835" fill="#a4c9ff" r="3.17"/></g></g></g><g><g><path d="m40.098 150.915c-.613.613-1.606.613-2.218 0l-2.218-2.218c-.613-.613-.613-1.606 0-2.218.613-.613 1.606-.613 2.218 0l2.218 2.218c.612.612.612 1.605 0 2.218z" fill="#a4c9ff"/></g></g><g><g><path d="m26.06 162.007c-.613.613-1.606.613-2.218 0l-2.218-2.218c-.613-.613-.613-1.606 0-2.218.613-.613 1.606-.613 2.218 0l2.218 2.218c.613.613.613 1.606 0 2.218z" fill="#a4c9ff"/></g></g></g><g><g><g><g><path d="m248.76 32.488c-.905 0-1.641.693-1.726 1.576h-2.74c-.355-3.767-1.84-7.205-4.122-9.963l1.934-1.934c.321.264.709.404 1.102.404.446 0 .892-.17 1.232-.51.681-.681.681-1.784 0-2.465-1.45-1.45-.776-.776-2.228-2.229-.681-.681-1.784-.681-2.465 0-.64.64-.671 1.65-.107 2.335l-1.934 1.934c-2.759-2.282-6.196-3.768-9.964-4.122v-2.74c.883-.085 1.576-.821 1.576-1.726 0-.963-.781-1.743-1.743-1.743h-3.152c-.963 0-1.743.78-1.743 1.743 0 .905.693 1.641 1.576 1.726v2.74c-3.767.355-7.204 1.841-9.963 4.122l-1.934-1.934c.564-.685.534-1.695-.106-2.335-.68-.681-1.784-.681-2.465 0l-1.114 1.114v.001l-1.114 1.114c-.681.681-.681 1.784 0 2.465.34.34.786.511 1.233.511.393 0 .782-.14 1.102-.404l1.934 1.934c-2.282 2.759-3.768 6.196-4.122 9.964h-2.739c-.085-.883-.821-1.576-1.726-1.576-.963 0-1.743.78-1.743 1.743v3.152c0 .963.78 1.743 1.743 1.743.906 0 1.641-.693 1.726-1.576h2.739c.355 3.767 1.84 7.205 4.122 9.964l-1.934 1.934c-.684-.564-1.695-.534-2.335.106-.681.681-.681 1.784 0 2.465l1.114 1.114s.001.001.001.001l1.114 1.114c.34.34.786.51 1.232.51s.892-.17 1.233-.51c.64-.64.67-1.65.106-2.335l1.934-1.934c2.759 2.282 6.196 3.767 9.964 4.122v2.74c-.883.085-1.576.821-1.576 1.726 0 .963.78 1.743 1.743 1.743h3.152c.963 0 1.743-.78 1.743-1.743 0-.905-.693-1.641-1.576-1.726v-2.74c3.767-.355 7.205-1.841 9.964-4.122l1.934 1.934c-.564.685-.534 1.695.107 2.335.34.34.786.51 1.232.51s.892-.17 1.233-.51l1.114-1.114s1.113-1.113 1.115-1.114c.681-.681.681-1.784 0-2.465-.64-.64-1.65-.67-2.335-.106l-1.934-1.934c2.282-2.759 3.768-6.196 4.122-9.964h2.74c.085.883.821 1.576 1.726 1.576.963 0 1.743-.78 1.743-1.743v-3.152c-.002-.966-.783-1.746-1.745-1.746z" fill="#6bdddd"/></g></g><g><g><circle cx="226" cy="35.807" fill="#4671c6" r="14.005"/></g></g><g><g><g><circle cx="223.031" cy="32.306" fill="#a4c9ff" r="5.698"/></g></g><g><g><circle cx="231.497" cy="41.835" fill="#a4c9ff" r="3.17"/></g></g></g><g><g><path d="m236.098 32.915c-.613.613-1.606.613-2.218 0l-2.218-2.218c-.613-.613-.613-1.606 0-2.218.613-.613 1.606-.613 2.218 0l2.218 2.218c.612.612.612 1.605 0 2.218z" fill="#a4c9ff"/></g></g><g><g><path d="m222.06 44.007c-.613.613-1.606.613-2.218 0l-2.218-2.218c-.613-.613-.613-1.606 0-2.218.613-.613 1.606-.613 2.218 0l2.218 2.218c.613.613.613 1.606 0 2.218z" fill="#a4c9ff"/></g></g></g></g><g><g><g><path d="m151.195 195.057c-1.473 0-2.667-1.194-2.667-2.667v-4.613c0-.982-.796-1.778-1.778-1.778h-37.11c-.982 0-1.778.796-1.778 1.778v4.613c0 1.473-1.194 2.667-2.667 2.667h-4.704c-.982 0-1.778.796-1.778 1.778v21.066c0 7.124 2.214 14.072 6.336 19.883 3.795 5.349 9.042 9.501 15.12 11.964l8.025 3.252 8.025-3.252c6.079-2.463 11.325-6.615 15.12-11.964 4.122-5.811 6.336-12.759 6.336-19.883v-21.066c0-.982-.796-1.778-1.778-1.778z" fill="#f9a7a7"/></g></g><g><g><path d="m122.792 242.991c-4.737-1.92-8.805-5.139-11.763-9.308-3.225-4.546-4.929-9.894-4.929-15.468v-15.79h.246c4.656 0 8.444-3.788 8.444-8.444v-.16h26.811v.16c0 4.656 3.788 8.444 8.444 8.444h.246v15.79c0 5.574-1.705 10.923-4.929 15.468-2.958 4.17-7.026 7.388-11.764 9.308l-5.403 2.19z" fill="#e0ebfc"/></g></g><g><g><path d="m142.584 214.444h-9.333v-9.333c0-.982-.796-1.778-1.778-1.778h-6.556c-.982 0-1.778.796-1.778 1.778v9.333h-9.333c-.982 0-1.778.796-1.778 1.778v6.556c0 .982.796 1.778 1.778 1.778h9.333v9.333c0 .982.796 1.778 1.778 1.778h6.556c.982 0 1.778-.796 1.778-1.778v-9.333h9.333c.982 0 1.778-.796 1.778-1.778v-6.556c0-.982-.796-1.778-1.778-1.778z" fill="#f9a7a7"/></g></g><g><g><path d="m128.195 255c-.255 0-.511-.049-.751-.146l-8.024-3.252c-6.444-2.611-11.977-6.989-16-12.661-4.388-6.184-6.706-13.459-6.706-21.04v-21.066c0-2.083 1.695-3.778 3.778-3.778h4.703c.368 0 .667-.299.667-.667v-4.613c0-2.083 1.694-3.778 3.777-3.778h37.111c2.083 0 3.777 1.695 3.777 3.778v4.613c0 .368.299.667.667.667h4.704c2.083 0 3.777 1.695 3.777 3.778v21.066c0 7.582-2.318 14.857-6.705 21.04-4.024 5.672-9.558 10.05-16.001 12.661l-8.024 3.252c-.239.097-.495.146-.75.146zm-27.481-57.943v20.844c0 6.747 2.063 13.222 5.968 18.726 3.581 5.048 8.506 8.944 14.24 11.268l7.273 2.947 7.273-2.947c5.734-2.324 10.659-6.22 14.241-11.268 3.903-5.503 5.967-11.978 5.967-18.726v-20.844h-4.481c-2.573 0-4.667-2.093-4.667-4.667v-4.39h-36.666v4.391c0 2.573-2.094 4.667-4.667 4.667h-4.481zm55.185 0h.01z" fill="#3762cc"/></g></g></g></g></svg>