<svg id="Layer_1" enable-background="new 0 0 256 256" height="512" viewBox="0 0 256 256" width="512" xmlns="http://www.w3.org/2000/svg"><g><g><g><path d="m128.596 156.978c0-1.393-.681-2.71-1.844-3.475-20.201-13.283-33.822-38.087-33.822-66.439s13.621-53.156 33.822-66.439c1.164-.765 1.844-2.082 1.844-3.475 0-3.348-3.727-5.352-6.522-3.508-22.457 14.813-37.562 42.177-37.562 73.422s15.104 58.609 37.562 73.422c2.795 1.843 6.522-.16 6.522-3.508z" fill="#a4c9ff"/></g></g><g><g><g><g><path d="m80.294 65.269c-1.152 0-2.088.882-2.197 2.006h-3.482c-.451-4.794-2.346-9.169-5.25-12.68l2.461-2.461c.408.336.903.514 1.403.514.568 0 1.135-.217 1.568-.65.867-.866.867-2.271 0-3.137-1.139-1.139-1.398-1.398-1.418-1.418 0 0-1.355-1.355-1.418-1.418-.866-.866-2.271-.867-3.137 0-.815.815-.853 2.1-.136 2.971l-2.461 2.461c-3.511-2.904-7.886-4.799-12.68-5.25v-3.482c1.124-.109 2.005-1.045 2.005-2.197 0-1.225-.993-2.218-2.218-2.218h-4.011c-1.225 0-2.218.993-2.218 2.218 0 1.152.882 2.088 2.006 2.197v3.482c-4.794.451-9.169 2.346-12.68 5.25l-2.461-2.461c.718-.871.679-2.157-.135-2.971-.866-.866-2.271-.867-3.137 0-.403.403-2.632 2.632-2.836 2.836-.867.866-.867 2.271 0 3.137.433.433 1.001.65 1.569.65.5 0 .995-.178 1.403-.514l2.461 2.461c-2.904 3.511-4.799 7.886-5.25 12.68h-3.482c-.109-1.124-1.044-2.006-2.197-2.006-1.225 0-2.218.993-2.218 2.218v4.011c0 1.225.993 2.218 2.218 2.218 1.152 0 2.088-.882 2.197-2.005h3.482c.451 4.795 2.346 9.169 5.25 12.68l-2.461 2.461c-2.17-1.788-4.944 1.3-2.971 3.272.001.001 1.418 1.418 1.418 1.418 1 .75 1.484 2.068 2.987 2.068.568 0 1.135-.217 1.569-.65.815-.815.853-2.1.135-2.971l2.461-2.461c3.511 2.904 7.886 4.799 12.68 5.25v3.482c-2.799.271-2.577 4.415.213 4.415h4.011c1.225 0 2.218-.993 2.218-2.218 0-1.152-.882-2.088-2.005-2.197v-3.482c4.795-.451 9.169-2.346 12.68-5.25l2.461 2.461c-.718.871-.679 2.157.136 2.971.866.867 2.271.866 3.137 0l1.418-1.418 1.418-1.418c.866-.866.866-2.271 0-3.137-.814-.815-2.1-.853-2.971-.135l-2.461-2.461c2.904-3.511 4.799-7.886 5.25-12.68h3.482c.109 1.124 1.045 2.005 2.197 2.005 1.225 0 2.218-.993 2.218-2.218v-4.011c-.003-1.224-.996-2.218-2.221-2.218z" fill="#6bdddd"/></g></g><g><g><circle cx="51.33" cy="69.493" fill="#4671c6" r="17.823"/></g></g><g><g><g><circle cx="47.894" cy="65.443" fill="#e0ebfc" r="6.592"/></g></g><g><g><circle cx="57.69" cy="76.468" fill="#e0ebfc" r="3.667"/></g></g></g><g><g><path d="m64.18 65.813c-.78.78-2.044.78-2.823 0l-2.823-2.823c-.78-.78-.78-2.043 0-2.823.78-.78 2.043-.78 2.823 0l2.823 2.823c.78.779.78 2.043 0 2.823z" fill="#a4c9ff"/></g></g><g><g><path d="m46.316 79.93c-.78.78-2.043.78-2.823 0l-2.823-2.823c-.78-.78-.78-2.043 0-2.823.78-.78 2.043-.78 2.823 0l2.823 2.823c.779.779.779 2.043 0 2.823z" fill="#f9a7a7"/></g></g></g><g><g><g><path d="m51.792 118.119c-.912 0-1.653.698-1.739 1.588h-2.76c-.357-3.795-1.854-7.258-4.153-10.037l1.948-1.948c.323.266.715.407 1.11.407 1.55 0 2.351-1.888 1.242-2.998-.005-.005-1.117-1.117-1.122-1.123 0 0-.924-.924-1.122-1.122-.686-.686-1.798-.686-2.483 0-.645.645-.676 1.662-.107 2.352l-1.948 1.948c-2.779-2.299-6.242-3.795-10.037-4.153v-2.76c.89-.086 1.587-.827 1.587-1.739 0-.97-.786-1.756-1.756-1.756h-3.175c-2.208 0-2.384 3.281-.168 3.495v2.76c-3.795.357-7.258 1.854-10.037 4.153l-1.948-1.948c1.415-1.718-1.029-3.914-2.59-2.352-.805.805-1.443 1.443-2.245 2.245-.686.686-.686 1.798 0 2.483.343.343.792.514 1.242.514.396 0 .788-.141 1.111-.407l1.948 1.948c-2.299 2.779-3.795 6.242-4.153 10.037h-2.76c-.214-2.216-3.495-2.04-3.495.168v3.175c0 2.208 3.281 2.384 3.495.168h2.76c.357 3.795 1.854 7.258 4.153 10.037l-1.948 1.948c-1.718-1.416-3.914 1.029-2.352 2.59.001.001 1.122 1.122 1.122 1.123.001 0 1.122 1.122 1.123 1.123 1.563 1.564 4.003-.638 2.59-2.352l1.948-1.948c2.779 2.299 6.242 3.795 10.037 4.153v2.76c-2.216.214-2.04 3.495.168 3.495h3.175c2.207 0 2.385-3.281.169-3.495v-2.76c3.795-.357 7.258-1.854 10.037-4.153l1.948 1.948c-.949 1.152-.122 2.867 1.349 2.867.98 0 1.605-.878 2.364-1.637.006-.006 1.116-1.116 1.122-1.123 1.561-1.561-.634-4.005-2.352-2.59l-1.948-1.948c2.299-2.779 3.796-6.242 4.153-10.037h2.76c.086.89.827 1.588 1.739 1.588.97 0 1.756-.786 1.756-1.756v-3.175c-.002-.97-.789-1.756-1.758-1.756z" fill="#6bdddd"/></g></g><g><g><circle cx="28.863" cy="121.462" fill="#4671c6" r="14.108"/></g></g><g><g><g><circle cx="26.144" cy="118.256" fill="#e0ebfc" r="5.218"/></g></g><g><g><circle cx="33.898" cy="126.983" fill="#e0ebfc" r="2.903"/></g></g></g><g><g><path d="m39.036 118.549c-.617.617-1.618.617-2.235 0l-2.235-2.235c-.617-.617-.617-1.618 0-2.235.617-.617 1.618-.617 2.235 0l2.235 2.235c.617.617.617 1.617 0 2.235z" fill="#a4c9ff"/></g></g><g><g><path d="m24.894 129.724c-.617.617-1.618.617-2.235 0l-2.235-2.235c-.617-.617-.617-1.618 0-2.235.617-.617 1.618-.617 2.235 0l2.235 2.235c.618.617.618 1.618 0 2.235z" fill="#f9a7a7"/></g></g></g></g><g><g><g><path d="m226.428 162.345h-86.337c-14.024 0-25.393 11.39-25.393 25.441v31.927h22.578v23.346h91.967v-23.346h22.578c0-11.92 0-19.958 0-31.927 0-14.05-11.369-25.441-25.393-25.441z" fill="#4671c6"/></g></g><g><g><path d="m157.359 140.213v24.168.003c0 14.036 11.357 25.415 25.367 25.415 14.003 0 25.366-11.371 25.366-25.418 0-4.889 0-19.115 0-24.168z" fill="#f9cfcf"/></g></g><g><g><path d="m114.698 219.714h22.578v23.346h-22.578z" fill="#f9cfcf"/></g></g><g><g><path d="m229.243 219.714h22.578v23.346h-22.578z" fill="#f9cfcf"/></g></g><g><g><path d="m251.821 245.06h-137.123c-1.104 0-2-.896-2-2v-55.273c0-15.131 12.289-27.441 27.393-27.441h15.269v-20.133c0-1.104.896-2 2-2h50.732c1.104 0 2 .896 2 2v20.133h16.336c15.104 0 27.394 12.31 27.394 27.441v55.273c-.001 1.104-.896 2-2.001 2zm-135.123-4h133.124v-53.273c0-12.926-10.494-23.441-23.394-23.441h-18.336c-1.104 0-2-.896-2-2v-20.133h-46.732v20.133c0 1.104-.896 2-2 2h-17.269c-12.899 0-23.393 10.516-23.393 23.441z" fill="#3762cc"/></g></g><g><g><path d="m183.259 144.487c-32.852 0-59.484-26.632-59.484-59.484v-25.104c0-8.258 6.694-14.952 14.952-14.952h104.016v40.056c0 32.852-26.632 59.484-59.484 59.484z" fill="#4671c6"/></g></g><g><g><path d="m183.26 146.487c-33.902 0-61.484-27.582-61.484-61.484v-25.104c0-9.348 7.604-16.952 16.952-16.952h104.016c1.104 0 2 .896 2 2v40.056c-.001 33.902-27.582 61.484-61.484 61.484zm-44.532-99.54c-7.142 0-12.952 5.811-12.952 12.952v25.104c0 31.697 25.787 57.484 57.484 57.484 31.696 0 57.483-25.787 57.483-57.484v-38.056z" fill="#3762cc"/></g></g><g><g><path d="m233.922 88.918v-4.753c0-27.781-22.682-50.302-50.663-50.302-27.98 0-50.663 22.521-50.663 50.302v4.753c-8.797-.179-15.777 6.843-15.777 15.33 0 9.063 7.897 16.232 17.115 15.255 5.228 22.255 25.321 38.836 49.325 38.836 24.005 0 44.097-16.582 49.325-38.836 9.205.975 17.115-6.18 17.115-15.255 0-8.491-6.985-15.508-15.777-15.33z" fill="#f9cfcf"/></g></g><g><g><path d="m183.26 160.339c-24.037 0-44.715-15.849-50.862-38.749-4.346.063-8.589-1.561-11.834-4.48-3.65-3.283-5.743-7.971-5.743-12.861 0-4.68 1.848-9.068 5.203-12.356 2.886-2.828 6.583-4.529 10.574-4.9v-2.827c0-28.839 23.625-52.302 52.663-52.302s52.662 23.462 52.662 52.302v2.827c3.991.372 7.688 2.073 10.575 4.901 3.354 3.287 5.202 7.675 5.202 12.355 0 4.89-2.093 9.577-5.741 12.86-3.247 2.92-7.485 4.536-11.837 4.482-6.147 22.899-26.825 38.748-50.862 38.748zm-49.323-42.835c.918 0 1.73.631 1.945 1.542 5.158 21.958 24.641 37.293 47.378 37.293s42.219-15.335 47.377-37.293c.231-.981 1.159-1.642 2.158-1.531 3.826.406 7.649-.828 10.487-3.381 2.808-2.525 4.417-6.128 4.417-9.886 0-3.596-1.421-6.969-4.002-9.498-2.598-2.546-6.067-3.898-9.734-3.833-.537.01-1.057-.195-1.44-.571-.384-.376-.601-.891-.601-1.429v-4.753c0-26.634-21.83-48.302-48.662-48.302-26.833 0-48.663 21.668-48.663 48.302v4.753c0 .538-.217 1.052-.601 1.429-.384.375-.899.584-1.44.571-3.677-.079-7.136 1.286-9.733 3.832-2.581 2.529-4.002 5.902-4.002 9.499 0 3.758 1.61 7.362 4.418 9.888 2.879 2.59 6.603 3.787 10.485 3.379.071-.008.142-.011.213-.011z" fill="#3762cc"/></g></g><g><g><path d="m242.743 79.162h-80.043c-16.626 0-30.104-13.478-30.104-30.104 0-19.126 14.346-31.338 30.104-31.338h53.086c14.888 0 26.957 12.069 26.957 26.957z" fill="#4671c6"/></g></g><g><g><path d="m242.743 81.162h-80.043c-17.702 0-32.104-14.401-32.104-32.104 0-21.654 16.54-33.338 32.104-33.338h53.086c15.967 0 28.957 12.99 28.957 28.957v34.484c0 1.105-.895 2.001-2 2.001zm-80.043-61.442c-13.624 0-28.104 10.282-28.104 29.338 0 15.497 12.607 28.104 28.104 28.104h78.043v-32.485c0-13.761-11.195-24.957-24.957-24.957z" fill="#3762cc"/></g></g><g><g><path d="m147.187 121.504h-13.253c-1.104 0-2-.896-2-2s.896-2 2-2h10.083l-13.225-27.724c-.476-.997-.054-2.191.943-2.667.995-.475 2.189-.054 2.666.944l14.591 30.585c.296.62.253 1.348-.113 1.929s-1.005.933-1.692.933z" fill="#3762cc"/></g></g><g><g><path d="m232.582 121.504h-13.253c-.687 0-1.325-.352-1.691-.933s-.409-1.309-.113-1.929l14.591-30.585c.476-.997 1.67-1.418 2.666-.944.997.476 1.419 1.669.943 2.667l-13.226 27.724h10.083c1.104 0 2 .896 2 2s-.895 2-2 2z" fill="#3762cc"/></g></g><g><g><path d="m147.187 143.337c9.184 9.258 21.949 15.002 36.072 15.002s26.886-5.744 36.07-15.001v-23.835h-72.142z" fill="#e0ebfc"/></g></g><g><g><g><path d="m200.093 130.841h-33.667c-1.104 0-2-.897-2-2.004s.896-2.004 2-2.004h33.667c1.104 0 2 .897 2 2.004s-.896 2.004-2 2.004z" fill="#a4c9ff"/></g></g></g><g><g><g><path d="m200.093 139.514h-33.667c-1.104 0-2-.897-2-2.004s.896-2.004 2-2.004h33.667c1.104 0 2 .897 2 2.004s-.896 2.004-2 2.004z" fill="#a4c9ff"/></g></g></g><g><g><g><path d="m200.093 148.188h-33.667c-1.104 0-2-.897-2-2.004s.896-2.004 2-2.004h33.667c1.104 0 2 .897 2 2.004s-.896 2.004-2 2.004z" fill="#a4c9ff"/></g></g></g><g><g><path d="m183.26 160.339c-14.201 0-27.516-5.538-37.492-15.593-.371-.375-.58-.881-.58-1.409v-23.833c0-1.104.896-2 2-2h72.142c1.104 0 2 .896 2 2v23.835c0 .528-.209 1.034-.58 1.409-9.977 10.054-23.29 15.591-37.49 15.591zm-34.073-17.835c9.152 8.929 21.219 13.835 34.072 13.835s24.918-4.906 34.069-13.834v-21.001h-68.142v21z" fill="#3762cc"/></g></g><g><g><path d="m137.276 245.06c-1.104 0-2-.896-2-2v-40.357c0-1.104.896-2 2-2s2 .896 2 2v40.357c0 1.104-.895 2-2 2z" fill="#3762cc"/></g></g><g><g><path d="m229.243 245.06c-1.104 0-2-.896-2-2v-40.357c0-1.104.896-2 2-2s2 .896 2 2v40.357c0 1.104-.895 2-2 2z" fill="#3762cc"/></g></g><g><g><path d="m137.276 245.06h-22.579c-1.104 0-2-.896-2-2v-23.346c0-1.104.896-2 2-2h22.579c1.104 0 2 .896 2 2v23.346c0 1.104-.895 2-2 2zm-20.578-4h18.579v-19.346h-18.579z" fill="#3762cc"/></g></g><g><g><path d="m251.821 245.06h-22.578c-1.104 0-2-.896-2-2v-23.346c0-1.104.896-2 2-2h22.578c1.104 0 2 .896 2 2v23.346c0 1.104-.895 2-2 2zm-20.578-4h18.578v-19.346h-18.578z" fill="#3762cc"/></g></g><g><g><path d="m209.562 113.866c-3.537 0-6.403-2.867-6.403-6.403v-6.83c0-3.537 2.867-6.403 6.403-6.403 3.537 0 6.403 2.867 6.403 6.403v6.83c0 3.536-2.867 6.403-6.403 6.403z" fill="#3762cc"/></g></g><g><g><path d="m156.944 113.866c-3.537 0-6.403-2.867-6.403-6.403v-6.83c0-3.537 2.867-6.403 6.403-6.403 3.537 0 6.403 2.867 6.403 6.403v6.83c.001 3.536-2.866 6.403-6.403 6.403z" fill="#3762cc"/></g></g></g></g></svg>