<svg id="Layer_1" enable-background="new 0 0 256 256" height="512" viewBox="0 0 256 256" width="512" xmlns="http://www.w3.org/2000/svg"><g><g><g><g><path d="m123.925 248v-.084-18.285c0-12.477-10.114-22.591-22.591-22.591h-76.811c-12.477 0-22.591 10.114-22.591 22.591v18.285.084z" fill="#a4c9ff"/></g></g><g><g><path d="m20.908 250c-1.104 0-2-.896-2-2v-15.5c0-1.104.896-2 2-2s2 .896 2 2v15.5c0 1.104-.895 2-2 2z" fill="#3762cc"/></g></g><g><g><path d="m104.948 250c-1.104 0-2-.896-2-2v-14.949c0-1.104.896-2 2-2s2 .896 2 2v14.949c0 1.104-.895 2-2 2z" fill="#3762cc"/></g></g><g><g><path d="m40.339 181.035v27.812.003c0 12.464 10.104 22.568 22.568 22.568 12.464 0 22.568-10.104 22.568-22.568v-.003c0-10.418 0-18.05 0-27.812z" fill="#f9cfcf"/></g></g><g><g><path d="m123.925 250h-121.993c-1.104 0-2-.896-2-2v-18.369c0-13.56 11.032-24.591 24.592-24.591h13.815v-24.005c0-1.104.896-2 2-2h45.136c1.104 0 2 .896 2 2v24.005h13.859c13.56 0 24.591 11.032 24.591 24.591v18.285c0 1.105-.896 2.084-2 2.084zm-119.993-4h117.993v-16.369c0-11.354-9.237-20.591-20.591-20.591h-15.859c-1.104 0-2-.896-2-2v-24.005h-41.136v24.005c0 1.104-.896 2-2 2h-15.816c-11.354 0-20.592 9.237-20.592 20.591v16.369z" fill="#3762cc"/></g></g><g><g><path d="m62.929 191.182c-29.227 0-52.921-23.693-52.921-52.921v-22.166c0-7.347 5.956-13.302 13.302-13.302h92.539v35.468c0 29.228-23.693 52.921-52.92 52.921z" fill="#4671c6"/></g></g><g><g><path d="m62.929 193.182c-30.283 0-54.921-24.637-54.921-54.921v-22.166c0-8.438 6.864-15.302 15.302-15.302h92.54c1.104 0 2 .896 2 2v35.468c0 30.284-24.638 54.921-54.921 54.921zm-39.619-88.389c-6.231 0-11.302 5.07-11.302 11.302v22.166c0 28.078 22.843 50.921 50.921 50.921s50.921-22.843 50.921-50.921v-33.468z" fill="#3762cc"/></g></g><g><g><path d="m108.001 141.838v-4.22c0-24.669-20.18-44.667-45.073-44.667-24.893 0-45.073 19.998-45.073 44.667v4.22c-7.827-.159-14.036 6.076-14.036 13.613 0 8.048 7.026 14.413 15.226 13.546 4.652 19.762 22.527 34.485 43.882 34.485 21.357 0 39.231-14.725 43.882-34.485 8.19.866 15.226-5.488 15.226-13.546.002-7.54-6.212-13.771-14.034-13.613z" fill="#f9cfcf"/></g></g><g><g><path d="m86.329 164.733c-3.146 0-5.697-2.551-5.697-5.697v-6.077c0-3.146 2.551-5.697 5.697-5.697 3.146 0 5.697 2.551 5.697 5.697v6.077c0 3.147-2.551 5.697-5.697 5.697z" fill="#3762cc"/></g></g><g><g><path d="m39.517 164.733c-3.146 0-5.697-2.551-5.697-5.697v-6.077c0-3.146 2.551-5.697 5.697-5.697 3.146 0 5.697 2.551 5.697 5.697v6.077c0 3.147-2.551 5.697-5.697 5.697z" fill="#3762cc"/></g></g><g><g><path d="m62.929 205.483c-21.428 0-39.868-14.065-45.418-34.408-3.874-.017-7.631-1.447-10.52-4.046-3.287-2.958-5.172-7.178-5.172-11.578 0-4.212 1.664-8.162 4.686-11.123 2.557-2.506 5.821-4.032 9.351-4.404v-2.307c0-25.732 21.117-46.667 47.073-46.667s47.072 20.935 47.072 46.667v2.307c3.529.372 6.794 1.898 9.351 4.404 3.021 2.96 4.686 6.911 4.686 11.122 0 4.4-1.885 8.62-5.17 11.577-2.89 2.6-6.647 4.029-10.521 4.047-5.55 20.344-23.991 34.409-45.418 34.409zm-43.881-38.485c.917 0 1.73.631 1.945 1.542 4.564 19.396 21.81 32.943 41.936 32.943s37.37-13.547 41.935-32.943c.231-.981 1.164-1.641 2.157-1.531 3.353.352 6.69-.724 9.171-2.955 2.444-2.199 3.846-5.335 3.846-8.603 0-3.128-1.237-6.063-3.484-8.265-2.271-2.224-5.283-3.393-8.511-3.348-.526.021-1.057-.194-1.44-.571s-.601-.891-.601-1.429v-4.22c0-23.527-19.322-42.667-43.072-42.667-23.751 0-43.073 19.14-43.073 42.667v4.22c0 .538-.217 1.052-.601 1.429-.384.376-.887.595-1.44.571-.083-.001-.167-.002-.251-.002-3.124 0-6.049 1.184-8.259 3.35-2.248 2.202-3.485 5.138-3.485 8.266 0 3.268 1.402 6.404 3.848 8.604 2.516 2.264 5.775 3.313 9.169 2.954.068-.009.14-.012.21-.012z" fill="#3762cc"/></g></g><g><g><path d="m17.856 78.616h70.714c15.066 0 27.279 12.213 27.279 27.279 0 15.066-12.213 27.279-27.279 27.279h-46.287c-13.491 0-24.428-10.937-24.428-24.428v-30.13z" fill="#4671c6"/></g></g><g><g><path d="m88.57 135.175h-46.287c-14.572 0-26.428-11.855-26.428-26.428v-30.131c0-1.104.896-2 2-2h70.715c16.145 0 29.279 13.135 29.279 29.279s-13.134 29.28-29.279 29.28zm-68.715-54.559v28.131c0 12.367 10.062 22.428 22.428 22.428h46.287c13.939 0 25.279-11.34 25.279-25.279s-11.339-25.28-25.279-25.28z" fill="#3762cc"/></g></g><g><g><path d="m62.906 184.783c-4.827 0-8.65-1.782-11.134-4.286-.778-.784-.772-2.051.012-2.829.784-.777 2.052-.772 2.828.011 1.803 1.818 4.624 3.103 8.294 3.103 3.706 0 6.524-1.318 8.295-3.103.776-.784 2.044-.79 2.828-.011.784.778.79 2.044.012 2.829-2.492 2.512-6.309 4.286-11.135 4.286z" fill="#3762cc"/></g></g></g><g><g><g><path d="m254.068 248v-.084-18.285c0-12.477-10.114-22.591-22.591-22.591h-76.811c-12.477 0-22.591 10.114-22.591 22.591v18.285.084z" fill="#4671c6"/></g></g><g><g><path d="m151.052 250c-1.104 0-2-.896-2-2v-16.583c0-1.104.896-2 2-2s2 .896 2 2v16.583c0 1.104-.896 2-2 2z" fill="#3762cc"/></g></g><g><g><path d="m235.092 250c-1.104 0-2-.896-2-2v-16.583c0-1.104.896-2 2-2s2 .896 2 2v16.583c0 1.104-.896 2-2 2z" fill="#3762cc"/></g></g><g><g><path d="m170.482 181.035v27.812.003c0 12.464 10.104 22.568 22.568 22.568 12.464 0 22.568-10.104 22.568-22.568v-.003c0-10.418 0-18.05 0-27.812z" fill="#f9cfcf"/></g></g><g><g><path d="m254.068 250h-121.993c-1.104 0-2-.896-2-2v-18.369c0-13.56 11.031-24.591 24.591-24.591h13.815v-24.005c0-1.104.896-2 2-2h45.136c1.104 0 2 .896 2 2v24.005h13.859c13.56 0 24.592 11.032 24.592 24.591v18.285c0 1.105-.895 2.084-2 2.084zm-119.993-4h117.993v-16.369c0-11.354-9.237-20.591-20.592-20.591h-15.859c-1.104 0-2-.896-2-2v-24.005h-41.136v24.005c0 1.104-.896 2-2 2h-15.815c-11.354 0-20.591 9.237-20.591 20.591z" fill="#3762cc"/></g></g><g><g><path d="m193.072 191.182c-29.227 0-52.921-23.693-52.921-52.921v-22.166c0-7.347 5.956-13.302 13.302-13.302h92.539v35.468c0 29.228-23.693 52.921-52.92 52.921z" fill="#4671c6"/></g></g><g><g><path d="m193.071 193.182c-30.283 0-54.921-24.637-54.921-54.921v-22.166c0-8.438 6.865-15.302 15.303-15.302h92.539c1.104 0 2 .896 2 2v35.468c0 30.284-24.638 54.921-54.921 54.921zm-39.618-88.389c-6.232 0-11.303 5.07-11.303 11.302v22.166c0 28.078 22.843 50.921 50.921 50.921s50.921-22.843 50.921-50.921v-33.468z" fill="#3762cc"/></g></g><g><g><path d="m238.144 141.838v-4.22c0-24.669-20.18-44.667-45.073-44.667-24.893 0-45.073 19.998-45.073 44.667v4.22c-7.827-.159-14.036 6.076-14.036 13.613 0 8.048 7.026 14.413 15.226 13.546 4.652 19.762 22.527 34.485 43.882 34.485 21.357 0 39.231-14.725 43.882-34.485 8.19.866 15.226-5.488 15.226-13.546.002-7.54-6.212-13.771-14.034-13.613z" fill="#f9cfcf"/></g></g><g><g><path d="m216.472 164.733c-3.146 0-5.697-2.551-5.697-5.697v-6.077c0-3.146 2.551-5.697 5.697-5.697 3.146 0 5.697 2.551 5.697 5.697v6.077c0 3.147-2.551 5.697-5.697 5.697z" fill="#3762cc"/></g></g><g><g><path d="m169.66 164.733c-3.146 0-5.697-2.551-5.697-5.697v-6.077c0-3.146 2.551-5.697 5.697-5.697 3.146 0 5.697 2.551 5.697 5.697v6.077c0 3.147-2.551 5.697-5.697 5.697z" fill="#3762cc"/></g></g><g><g><path d="m193.071 205.483c-21.427 0-39.867-14.065-45.417-34.408-3.874-.017-7.632-1.447-10.52-4.046-3.287-2.958-5.172-7.177-5.172-11.578 0-4.212 1.664-8.162 4.686-11.123 2.557-2.506 5.821-4.032 9.351-4.404v-2.307c0-25.732 21.116-46.667 47.072-46.667s47.073 20.935 47.073 46.667v2.307c3.529.372 6.793 1.898 9.351 4.404 3.021 2.961 4.686 6.911 4.686 11.122 0 4.4-1.885 8.62-5.171 11.576-2.889 2.6-6.646 4.03-10.521 4.047-5.55 20.345-23.991 34.41-45.418 34.41zm-43.88-38.485c.917 0 1.73.63 1.945 1.542 4.564 19.396 21.81 32.943 41.935 32.943 20.126 0 37.37-13.547 41.936-32.943.231-.981 1.166-1.641 2.157-1.531 3.356.352 6.69-.724 9.171-2.955 2.444-2.199 3.846-5.335 3.846-8.603 0-3.127-1.237-6.063-3.485-8.265-2.269-2.224-5.315-3.393-8.51-3.348-.543.021-1.058-.194-1.44-.571-.384-.376-.601-.891-.601-1.429v-4.22c0-23.527-19.322-42.667-43.073-42.667-23.75 0-43.072 19.14-43.072 42.667v4.22c0 .538-.217 1.052-.601 1.429-.384.376-.902.595-1.44.571-3.176-.06-6.24 1.123-8.51 3.348-2.248 2.202-3.485 5.138-3.485 8.266 0 3.268 1.402 6.404 3.848 8.604 2.515 2.264 5.771 3.311 9.169 2.954.069-.009.14-.012.21-.012z" fill="#3762cc"/></g></g><g><g><path d="m245.992 133.175h-70.714c-15.066 0-27.279-12.213-27.279-27.279 0-15.066 12.213-27.279 27.279-27.279h46.287c13.491 0 24.428 10.937 24.428 24.428v30.13z" fill="#4671c6"/></g></g><g><g><path d="m245.992 135.175h-70.714c-16.145 0-29.279-13.135-29.279-29.279s13.135-29.279 29.279-29.279h46.286c14.572 0 26.428 11.855 26.428 26.428v30.131c0 1.103-.895 1.999-2 1.999zm-70.714-54.559c-13.939 0-25.279 11.34-25.279 25.279s11.34 25.279 25.279 25.279h68.714v-28.131c0-12.367-10.062-22.428-22.428-22.428h-46.286z" fill="#3762cc"/></g></g><g><g><path d="m193.05 184.783c-4.837 0-8.657-1.789-11.135-4.286-.778-.784-.772-2.051.012-2.829.784-.777 2.052-.772 2.828.011 1.795 1.809 4.616 3.103 8.295 3.103 3.708 0 6.523-1.318 8.294-3.103.776-.784 2.044-.79 2.828-.011.784.778.79 2.044.012 2.829-2.492 2.511-6.307 4.286-11.134 4.286z" fill="#3762cc"/></g></g></g><g><g><g><path d="m193.05 35h-130.143c-2.209 0-4-1.791-4-4s1.791-4 4-4h119.212l-14.135-11.945c-1.688-1.426-1.899-3.95-.474-5.637 1.428-1.687 3.951-1.899 5.638-.473l22.483 19c1.282 1.084 1.751 2.853 1.175 4.43-.577 1.576-2.078 2.625-3.756 2.625z" fill="#6bdddd"/></g></g></g><g><g><g><path d="m85.388 71c-.912 0-1.829-.31-2.58-.945l-22.483-19c-1.282-1.084-1.751-2.853-1.175-4.43.577-1.576 2.078-2.625 3.757-2.625h130.143c2.209 0 4 1.791 4 4s-1.791 4-4 4h-119.212l14.135 11.945c1.688 1.426 1.899 3.95.474 5.637-.793.936-1.922 1.418-3.059 1.418z" fill="#6bdddd"/></g></g></g></g></svg>