<svg id="Layer_1" enable-background="new 0 0 256 256" height="512" viewBox="0 0 256 256" width="512" xmlns="http://www.w3.org/2000/svg"><g><g><g><g><path d="m230.947 142.491h-15.481c0-12.078 0-20.258 0-33.988h-44.059v33.988h-15.439c-12.179 0-22.053 9.873-22.053 22.052v48.281h119.084c0-6.868 0-41.338 0-48.281.001-12.179-9.872-22.052-22.052-22.052z" fill="#f9cfcf"/></g></g><g><g><path d="m151.857 214.825c-1.104 0-2-.896-2-2v-36.758c0-1.104.896-2 2-2s2 .896 2 2v36.758c0 1.104-.895 2-2 2z" fill="#3762cc"/></g></g><g><g><path d="m233.894 214.825c-1.104 0-2-.896-2-2v-33.137c0-1.104.896-2 2-2s2 .896 2 2v33.137c0 1.104-.896 2-2 2z" fill="#3762cc"/></g></g><g><g><path d="m253 214.825h-119.084c-1.104 0-2-.896-2-2v-48.281c0-13.263 10.79-24.053 24.053-24.053h13.438v-31.987c0-1.104.896-2 2-2h44.059c1.104 0 2 .896 2 2v31.987h13.481c13.263 0 24.053 10.79 24.053 24.053v48.281c0 1.104-.896 2-2 2zm-117.084-4h115.084v-46.281c0-11.057-8.996-20.053-20.053-20.053h-15.481c-1.104 0-2-.896-2-2v-31.987h-40.059v31.987c0 1.104-.896 2-2 2h-15.438c-11.057 0-20.053 8.996-20.053 20.053z" fill="#3762cc"/></g></g><g><g><path d="m193.458 127.011c-28.53 0-51.659-23.128-51.659-51.659v-21.637c0-7.171 5.814-12.985 12.985-12.985h90.332v34.622c.001 28.531-23.128 51.659-51.658 51.659z" fill="#4671c6"/></g></g><g><g><path d="m193.458 129.011c-29.588 0-53.659-24.071-53.659-53.659v-21.637c0-8.263 6.723-14.985 14.985-14.985h90.332c1.104 0 2 .896 2 2v34.622c0 29.588-24.071 53.659-53.658 53.659zm-38.674-86.281c-6.058 0-10.985 4.928-10.985 10.985v21.637c0 27.382 22.277 49.659 49.659 49.659s49.658-22.277 49.658-49.659v-32.622z" fill="#3762cc"/></g></g><g><g><path d="m237.456 78.844v-4.12c0-24.08-19.699-43.602-43.998-43.602-24.299 0-43.998 19.521-43.998 43.602v4.12c-7.64-.155-13.701 5.931-13.701 13.288 0 7.856 6.858 14.07 14.863 13.223 4.541 19.291 21.99 33.663 42.836 33.663 20.847 0 38.296-14.374 42.836-33.663 7.994.845 14.863-5.357 14.863-13.223 0-7.36-6.066-13.442-13.701-13.288z" fill="#f9cfcf"/></g></g><g><g><path d="m202.987 118.441c-.515 0-1.029-.197-1.42-.591-1.121-1.131-2.651-2.014-4.424-2.553-1.066-.324-2.273-.482-3.691-.482-1.417 0-2.624.158-3.69.482-1.772.539-3.303 1.422-4.424 2.553-.777.783-2.045.789-2.828.011-.784-.778-.79-2.044-.012-2.829 1.586-1.599 3.695-2.831 6.1-3.563 1.449-.44 3.037-.655 4.854-.655 1.818 0 3.406.214 4.855.655 2.404.731 4.514 1.963 6.1 3.563.778.785.772 2.051-.012 2.829-.389.387-.899.58-1.408.58z" fill="#3762cc"/></g></g><g><g><path d="m193.458 141.019c-20.926 0-38.937-13.727-44.371-33.587-3.78-.026-7.444-1.425-10.264-3.962-3.219-2.896-5.064-7.028-5.064-11.336 0-4.125 1.63-7.993 4.588-10.892 2.494-2.443 5.674-3.935 9.113-4.307v-2.209c0-25.145 20.635-45.602 45.998-45.602s45.998 20.457 45.998 45.602v2.209c3.439.372 6.619 1.864 9.113 4.308 2.958 2.899 4.588 6.767 4.588 10.891 0 4.309-1.846 8.44-5.063 11.335-2.82 2.538-6.485 3.938-10.266 3.963-5.432 19.86-23.444 33.587-44.37 33.587zm-42.834-37.663c.917 0 1.73.63 1.945 1.542 4.451 18.913 21.266 32.121 40.889 32.121 19.624 0 36.438-13.208 40.889-32.121.231-.981 1.17-1.645 2.157-1.531 3.266.342 6.504-.703 8.915-2.873 2.376-2.138 3.738-5.186 3.738-8.362 0-3.041-1.203-5.894-3.388-8.034-2.206-2.162-5.141-3.304-8.272-3.254-.548.01-1.057-.195-1.44-.571-.384-.376-.601-.891-.601-1.429v-4.12c0-22.939-18.84-41.602-41.998-41.602s-41.998 18.664-41.998 41.603v4.12c0 .538-.217 1.052-.601 1.429s-.913.585-1.44.571c-3.119-.061-6.066 1.092-8.272 3.254-2.185 2.141-3.388 4.994-3.388 8.035 0 3.176 1.363 6.224 3.739 8.363 2.445 2.2 5.61 3.221 8.914 2.872.07-.01.142-.013.212-.013z" fill="#3762cc"/></g></g><g><g><path d="m245.117 70.387h-69.028c-14.707 0-26.629-11.922-26.629-26.629 0-14.707 11.922-26.629 26.629-26.629h45.183c13.169 0 23.845 10.676 23.845 23.845z" fill="#4671c6"/></g></g><g><g><path d="m245.116 72.387h-69.027c-15.786 0-28.629-12.843-28.629-28.628 0-15.786 12.843-28.629 28.629-28.629h45.183c14.251 0 25.845 11.594 25.845 25.846v29.412c-.001 1.104-.896 1.999-2.001 1.999zm-69.027-53.257c-13.58 0-24.629 11.048-24.629 24.629 0 13.58 11.049 24.628 24.629 24.628h67.027v-27.411c0-12.046-9.8-21.846-21.845-21.846z" fill="#3762cc"/></g></g><g><g><g><path d="m212.114 85.481c-.854.978-1.375 2.253-1.375 3.653v5.932c0 3.071 2.49 5.561 5.561 5.561 3.071 0 5.561-2.49 5.561-5.561v-5.663c-3.98-.695-7.3-2.329-9.747-3.922z" fill="#3762cc"/></g></g><g><g><path d="m165.044 89.398v5.668c0 3.071 2.49 5.561 5.561 5.561s5.561-2.49 5.561-5.561v-5.932c0-1.406-.526-2.686-1.386-3.665-2.443 1.592-5.759 3.228-9.736 3.929z" fill="#3762cc"/></g></g><g><g><path d="m225.822 91.754c-11.869 0-19.553-8.399-19.882-8.766-.737-.822-.67-2.086.151-2.824.823-.738 2.084-.67 2.822.148.095.104 6.885 7.441 16.929 7.441.23 0 .462-.003.697-.012 1.098-.02 2.028.828 2.066 1.932.037 1.104-.827 2.029-1.932 2.066-.283.01-.569.015-.851.015z" fill="#3762cc"/></g></g><g><g><path d="m161.052 91.754c-.282 0-.566-.004-.853-.014-1.104-.038-1.969-.963-1.932-2.066.038-1.104.96-1.952 2.066-1.932 10.519.378 17.553-7.349 17.622-7.426.739-.821 2.002-.89 2.825-.151.821.738.889 2.002.151 2.824-.327.365-8.012 8.765-19.879 8.765z" fill="#3762cc"/></g></g></g><g><g><g><path d="m226.589 197.994c-1.33 0-2.411 1.018-2.536 2.315h-4.02c-.521-5.535-2.709-10.585-6.061-14.639l2.841-2.841c.471.388 1.042.594 1.62.594.655 0 1.311-.25 1.811-.75 1-1 1-2.621 0-3.622l-1.637-1.637-1.637-1.637c-1-1-2.622-1-3.622 0-.941.94-.985 2.424-.157 3.43l-2.841 2.841c-4.054-3.353-9.104-5.54-14.639-6.061v-4.02c1.297-.125 2.315-1.206 2.315-2.536 0-1.415-1.146-2.561-2.561-2.561h-4.631c-1.414 0-2.561 1.146-2.561 2.561 0 1.33 1.018 2.411 2.315 2.536v4.02c-5.535.521-10.585 2.708-14.639 6.061l-2.841-2.841c.829-1.006.784-2.49-.156-3.43-1-1-2.621-1-3.622 0l-1.637 1.636s-.001 0-.001.001c0 0 0 0-.001.001l-1.636 1.636c-1 1-1 2.622 0 3.622.5.5 1.155.75 1.811.75.577 0 1.149-.206 1.62-.594l2.841 2.841c-3.353 4.054-5.54 9.104-6.061 14.639h-4.02c-.125-1.297-1.206-2.315-2.536-2.315-1.414 0-2.561 1.146-2.561 2.561v4.631c0 1.415 1.146 2.561 2.561 2.561 1.33 0 2.411-1.018 2.536-2.315h4.02c.521 5.535 2.708 10.585 6.061 14.639l-2.841 2.841c-1.006-.829-2.49-.785-3.431.156-1 1-1 2.622 0 3.622l1.636 1.636s0 0 .001.001c0 0 .001 0 .001.001l1.637 1.636c.5.5 1.155.75 1.811.75.655 0 1.311-.25 1.811-.75.94-.941.985-2.424.156-3.43l2.841-2.841c4.054 3.353 9.104 5.54 14.639 6.061v4.02c-1.297.125-2.315 1.206-2.315 2.536 0 1.415 1.146 2.561 2.561 2.561h4.631c1.414 0 2.561-1.146 2.561-2.561 0-1.33-1.018-2.411-2.315-2.536v-4.02c5.535-.521 10.585-2.708 14.639-6.061l2.841 2.841c-.829 1.006-.784 2.49.157 3.43.5.5 1.155.75 1.811.75.655 0 1.311-.25 1.811-.75l1.637-1.637 1.637-1.637c1-1 1-2.622 0-3.622-.94-.941-2.424-.985-3.43-.156l-2.841-2.841c3.353-4.054 5.54-9.104 6.061-14.639h4.02c.125 1.298 1.206 2.315 2.536 2.315 1.414 0 2.561-1.146 2.561-2.561v-4.631c-.001-1.415-1.148-2.561-2.562-2.561z" fill="#6bdddd"/></g></g><g><g><circle cx="193.15" cy="202.87" fill="#4671c6" r="20.576"/></g></g><g><g><g><circle cx="189.184" cy="198.195" fill="#e0ebfc" r="7.61"/></g></g><g><g><circle cx="200.492" cy="210.922" fill="#e0ebfc" r="4.234"/></g></g></g><g><g><path d="m207.985 198.621c-.9.9-2.359.9-3.259 0l-3.259-3.259c-.9-.9-.9-2.359 0-3.259.9-.9 2.359-.9 3.259 0l3.259 3.259c.9.9.9 2.359 0 3.259z" fill="#a4c9ff"/></g></g><g><g><path d="m187.362 214.919c-.9.9-2.359.9-3.259 0l-3.259-3.259c-.9-.9-.9-2.359 0-3.259.9-.9 2.359-.9 3.259 0l3.259 3.259c.9.899.9 2.359 0 3.259z" fill="#f9a7a7"/></g></g><g><g><path d="m195.465 240.87h-4.631c-2.515 0-4.561-2.046-4.561-4.561 0-1.697.921-3.182 2.315-3.963v-.83c-4.517-.712-8.771-2.473-12.471-5.164l-.586.585c.433 1.539.034 3.24-1.165 4.439-.861.861-2.007 1.336-3.226 1.336-1.218 0-2.363-.475-3.225-1.336l-1.637-1.636c-.013-.013-.024-.025-.037-.038l-1.601-1.6c-1.778-1.779-1.778-4.672 0-6.45 1.2-1.2 2.902-1.599 4.439-1.166l.586-.585c-2.69-3.701-4.452-7.954-5.165-12.471h-.828c-.782 1.395-2.267 2.315-3.964 2.315-2.516 0-4.562-2.046-4.562-4.561v-4.63c0-2.515 2.046-4.561 4.562-4.561 1.697 0 3.182.921 3.964 2.315h.828c.713-4.517 2.475-8.771 5.165-12.471l-.585-.585c-1.567.444-3.288-.014-4.44-1.166-1.778-1.778-1.778-4.671 0-6.45l3.274-3.274c1.779-1.777 4.673-1.778 6.45 0 1.199 1.199 1.598 2.9 1.165 4.439l.586.585c3.7-2.69 7.954-4.452 12.471-5.164v-.83c-1.395-.782-2.315-2.267-2.315-3.963 0-2.515 2.046-4.561 4.561-4.561h4.631c2.516 0 4.562 2.046 4.562 4.561 0 1.696-.921 3.181-2.315 3.963v.83c4.517.712 8.771 2.473 12.471 5.164l.586-.585c-.433-1.539-.034-3.24 1.165-4.439 1.779-1.779 4.675-1.777 6.45 0l3.274 3.274c.861.862 1.336 2.007 1.336 3.226s-.476 2.364-1.338 3.225c-1.151 1.151-2.876 1.609-4.438 1.165l-.585.585c2.69 3.701 4.452 7.954 5.165 12.471h.828c.782-1.395 2.267-2.315 3.964-2.315 2.515 0 4.561 2.046 4.561 4.561v4.63c0 2.515-2.046 4.561-4.561 4.561-1.697 0-3.182-.921-3.964-2.315h-.828c-.713 4.517-2.475 8.771-5.165 12.471l.586.585c1.538-.432 3.24-.035 4.439 1.166.86.86 1.336 2.005 1.336 3.224 0 1.218-.475 2.364-1.336 3.225l-3.274 3.274c-.861.861-2.007 1.336-3.226 1.336-1.218 0-2.363-.475-3.225-1.336-1.199-1.199-1.598-2.9-1.165-4.439l-.586-.585c-3.7 2.69-7.954 4.452-12.471 5.164v.83c1.395.782 2.315 2.267 2.315 3.963.002 2.516-2.044 4.562-4.559 4.562zm-19.515-19.178c.451 0 .903.152 1.274.459 3.87 3.2 8.557 5.141 13.552 5.611 1.027.097 1.813.959 1.813 1.991v4.02c0 1.03-.782 1.892-1.808 1.991-.289.028-.508.263-.508.546 0 .309.251.561.561.561h4.631c.31 0 .562-.251.562-.561 0-.283-.219-.518-.508-.545-1.025-.099-1.808-.961-1.808-1.991v-4.02c0-1.032.785-1.895 1.813-1.991 4.995-.47 9.682-2.411 13.552-5.611.793-.657 1.959-.604 2.688.127l2.841 2.841c.729.728.784 1.89.13 2.685-.185.225-.174.545.026.745.143.143.31.164.396.164.106 0 .262-.028.397-.164l3.274-3.275c.136-.135.164-.29.164-.396s-.028-.26-.164-.396c-.202-.202-.522-.212-.745-.028-.795.655-1.956.6-2.686-.129l-2.841-2.841c-.729-.729-.784-1.894-.127-2.688 3.2-3.87 5.141-8.556 5.611-13.552.097-1.027.959-1.813 1.991-1.813h4.02c1.03 0 1.892.783 1.991 1.808.027.289.262.507.545.507.31 0 .561-.251.561-.561v-4.63c0-.31-.251-.561-.561-.561-.283 0-.518.218-.545.507-.1 1.025-.961 1.808-1.991 1.808h-4.02c-1.032 0-1.895-.785-1.991-1.813-.471-4.996-2.411-9.682-5.611-13.552-.657-.795-.603-1.959.127-2.688l2.841-2.841c.729-.73 1.892-.785 2.687-.129.205.169.459.259.743-.027.137-.137.165-.291.165-.397s-.028-.261-.165-.396l-3.273-3.274c-.219-.22-.575-.218-.794 0-.2.2-.211.521-.026.746.654.795.599 1.957-.13 2.686l-2.841 2.84c-.729.729-1.896.783-2.688.126-3.87-3.2-8.557-5.141-13.552-5.611-1.027-.097-1.813-.959-1.813-1.991v-4.02c0-1.03.782-1.892 1.808-1.991.289-.028.508-.263.508-.545 0-.309-.252-.561-.562-.561h-4.631c-.31 0-.561.251-.561.561 0 .283.218.518.507.545 1.026.099 1.809.96 1.809 1.991v4.02c0 1.032-.785 1.895-1.813 1.991-4.995.47-9.682 2.411-13.552 5.611-.794.656-1.959.603-2.688-.126l-2.841-2.84c-.729-.729-.784-1.89-.13-2.686.185-.225.174-.545-.026-.746-.22-.219-.575-.218-.795.001l-3.273 3.273c-.219.219-.219.575 0 .793.286.286.54.195.746.026.793-.654 1.956-.598 2.685.13l2.841 2.841c.729.729.784 1.894.127 2.688-3.2 3.87-5.141 8.556-5.611 13.552-.097 1.027-.959 1.813-1.991 1.813h-4.02c-1.03 0-1.892-.783-1.991-1.808-.027-.289-.262-.507-.545-.507-.31 0-.562.251-.562.561v4.63c0 .31.252.561.562.561.283 0 .518-.218.545-.507.1-1.025.961-1.808 1.991-1.808h4.02c1.032 0 1.895.785 1.991 1.813.471 4.996 2.411 9.682 5.611 13.552.657.795.603 1.959-.127 2.688l-2.841 2.841c-.729.729-1.893.784-2.687.129-.224-.185-.545-.175-.743.027-.22.219-.22.575-.001.793l1.637 1.636c.013.012.024.025.036.038l1.602 1.601c.136.136.291.165.396.165.087 0 .255-.021.397-.164.2-.2.211-.521.026-.745-.654-.795-.599-1.957.13-2.685l2.841-2.841c.39-.391.902-.588 1.415-.588z" fill="#3762cc"/></g></g></g></g><g><g><path d="m21.768 212.825h-11.429c-1.081 0-1.957-.876-1.957-1.957v-45.767c0-1.081.876-1.957 1.957-1.957h11.429c1.081 0 1.957.876 1.957 1.957v45.767c0 1.081-.877 1.957-1.957 1.957z" fill="#f9a7a7"/></g></g><g><g><path d="m53.649 212.825h-11.429c-1.081 0-1.957-.876-1.957-1.957v-83.17c0-1.081.876-1.957 1.957-1.957h11.429c1.081 0 1.957.876 1.957 1.957v83.17c0 1.081-.876 1.957-1.957 1.957z" fill="#f9a7a7"/></g></g><g><g><path d="m85.53 212.825h-11.429c-1.081 0-1.957-.876-1.957-1.957v-66.316c0-1.081.876-1.957 1.957-1.957h11.429c1.081 0 1.957.876 1.957 1.957v66.316c0 1.081-.876 1.957-1.957 1.957z" fill="#f9a7a7"/></g></g><g><g><path d="m117.411 212.825h-11.429c-1.081 0-1.957-.876-1.957-1.957v-100.408c0-1.081.876-1.957 1.957-1.957h11.429c1.081 0 1.957.876 1.957 1.957v100.408c0 1.081-.876 1.957-1.957 1.957z" fill="#f9a7a7"/></g></g><g><g><path d="m130.667 54.606-17.728 7.023c-1.434.568-1.712 2.476-.501 3.43l3.819 3.01-8.563 10.525-29.169 35.097-28.01-28.878c-.884-.912-2.123-1.395-3.387-1.332-1.268.065-2.447.675-3.233 1.673l-39.951 50.716c-1.505 1.91-1.176 4.679.734 6.184.807.636 1.768.944 2.722.944 1.303 0 2.593-.576 3.462-1.678l36.834-46.761 27.919 28.784c.87.897 2.083 1.388 3.329 1.334 1.249-.048 2.419-.625 3.218-1.585l32.332-38.903 8.678-10.667 4.165 3.283c1.205.95 2.987.245 3.216-1.273l2.828-18.767c.23-1.527-1.28-2.727-2.714-2.159z" fill="#6bdddd"/></g></g><g><g><path d="m21.768 214.825h-11.429c-2.182 0-3.957-1.775-3.957-3.957v-45.767c0-2.182 1.775-3.957 3.957-3.957h11.429c2.182 0 3.957 1.775 3.957 3.957v45.767c0 2.182-1.775 3.957-3.957 3.957zm-.043-49.724-11.386.043.043 45.724 11.343-.043zm.043 45.724h.01z" fill="#3762cc"/></g></g><g><g><path d="m53.649 214.825h-11.429c-2.182 0-3.957-1.775-3.957-3.957v-83.17c0-2.182 1.775-3.957 3.957-3.957h11.429c2.182 0 3.957 1.775 3.957 3.957v83.17c0 2.182-1.775 3.957-3.957 3.957zm-.043-87.127-11.386.043.043 83.127 11.343-.043z" fill="#3762cc"/></g></g><g><g><path d="m85.53 214.825h-11.429c-2.182 0-3.957-1.775-3.957-3.957v-66.316c0-2.182 1.775-3.957 3.957-3.957h11.429c2.182 0 3.957 1.775 3.957 3.957v66.316c0 2.182-1.775 3.957-3.957 3.957zm-.043-70.274-11.386.043.043 66.273 11.343-.043zm.043 66.274h.01z" fill="#3762cc"/></g></g><g><g><path d="m117.411 214.825h-11.429c-2.182 0-3.957-1.775-3.957-3.957v-100.408c0-2.182 1.775-3.957 3.957-3.957h11.429c2.182 0 3.957 1.775 3.957 3.957v100.407c0 2.183-1.775 3.958-3.957 3.958zm-.043-104.365-11.386.043.043 100.364 11.343-.043zm.043 100.365h.01z" fill="#3762cc"/></g></g><g><g><path d="m7.4 144.998c-1.429 0-2.835-.487-3.959-1.373-2.773-2.186-3.252-6.219-1.068-8.993l39.949-50.715c1.143-1.45 2.856-2.337 4.701-2.432 1.844-.093 3.642.613 4.926 1.937l26.46 27.279 27.746-33.385 7.268-8.934-2.223-1.752c-1.138-.897-1.692-2.288-1.482-3.72.209-1.433 1.138-2.607 2.485-3.14l17.729-7.023c1.349-.535 2.828-.314 3.962.587 1.135.902 1.683 2.295 1.466 3.728l-2.827 18.766c-.215 1.425-1.143 2.593-2.482 3.124-1.342.529-2.817.315-3.949-.578l-2.619-2.064-7.436 9.14-32.345 38.919c-1.16 1.396-2.866 2.236-4.679 2.306-1.797.074-3.569-.628-4.841-1.94l-26.329-27.143-35.419 44.965c-1.224 1.551-3.058 2.441-5.034 2.441zm39.948-59.521c-.041 0-.081.001-.122.003-.69.036-1.333.368-1.761.912l-39.949 50.715c-.82 1.041-.64 2.555.401 3.375 1.013.796 2.58.606 3.375-.402l36.833-46.76c.357-.453.892-.73 1.468-.76.586-.021 1.137.191 1.539.605l27.919 28.784c.477.492 1.133.758 1.807.729.691-.026 1.331-.342 1.767-.866l32.332-38.903 8.665-10.651c.689-.847 1.933-.985 2.789-.309l4.165 3.283 2.828-18.767-17.728 7.023 3.818 3.01c.421.332.691.818.75 1.351.059.532-.098 1.066-.437 1.482l-8.563 10.525-29.182 35.114c-.363.437-.894.698-1.461.72-.565.018-1.117-.199-1.512-.606l-28.01-28.877c-.455-.468-1.079-.73-1.731-.73zm83.319-30.871h.01z" fill="#3762cc"/></g></g></g></svg>