<svg height="512" viewBox="0 0 58 58" width="512" xmlns="http://www.w3.org/2000/svg"><g id="Page-1" fill="none" fill-rule="evenodd"><g id="002---Virus" fill-rule="nonzero"><g fill="#d15627"><path id="Shape" d="m22.931 13.129-.005-.008c-1.2856943-1.6016132-2.485064-3.2706497-3.593-5-.2660291-.43856105-.3828588-.95148909-.333-1.462.0694996-1.27768748-.6790552-2.45882401-1.8641409-2.94140797-1.1850858-.48258397-2.545822-.16038107-3.3886687.80238833-.8428467.96276939-.9822627 2.35416471-.3471904 3.46501964.2768643.48528334.6861454.8817311 1.18 1.143.5097395.24689141.9319071.64358935 1.21 1.137.9235074 1.8022104 1.7562161 3.6495222 2.495 5.535v.009z"/><path id="Shape" d="m12.221 26.32h-.01c-2.0306623.3124686-4.076585.5160928-6.129.61-.51165188.0114414-1.01328197-.1429063-1.43-.44-1.07149729-.7014288-2.47011149-.6453298-3.48198773.139664-1.01187624.7849939-1.41386499 2.1257674-1.00079055 3.3379879.41307444 1.2122204 1.55011655 2.0285561 2.83077828 2.0323481.55870457.0030182 1.10672551-.1530637 1.58-.45.46856709-.3185732 1.02342513-.4860775 1.59-.48 1.54.08 3.719.25 6.039.61h.01z"/><path id="Shape" d="m18.29 42.191v.009c-.7450868 1.9148524-1.5919607 3.7885235-2.537 5.613-.2468341.4494356-.6328256.8066532-1.1 1.018-1.1432861.5774436-1.7938651 1.8170467-1.6196073 3.0859747.1742577 1.268928 1.1349123 2.2872657 2.3915362 2.5351375s2.5320161-.3294009 3.1750711-1.4371122c.2818063-.4822804.4205432-1.0348.4-1.593-.0419644-.5650724.0903118-1.1294275.379-1.617.84-1.294 2.077-3.1 3.548-4.926l.005-.008z"/><path id="Shape" d="m35.069 44.871v.008c1.2856943 1.6016132 2.485064 3.2706497 3.593 5 .2677715.4379721.3863648.9509403.338 1.462-.0694996 1.2776875.6790552 2.458824 1.8641409 2.941408 1.1850858.4825839 2.545822.160381 3.3886687-.8023884s.9822627-2.3541647.3471904-3.4650196c-.2768643-.4852833-.6861454-.8817311-1.18-1.143-.5099593-.2465719-.9322123-.6433501-1.21-1.137-.9235074-1.8022104-1.7562161-3.6495222-2.495-5.535l-.005-.009z"/><path id="Shape" d="m45.779 31.68h.01c2.0306623-.3124686 4.076585-.5160928 6.129-.61.5116519-.0114414 1.013282.1429063 1.43.44 1.0714973.7014288 2.4701115.6453298 3.4819877-.139664 1.0118763-.7849939 1.413865-2.1257674 1.0007906-3.3379879-.4130745-1.2122204-1.5501166-2.0285561-2.8307783-2.0323481-.5587046-.0030182-1.1067255.1530637-1.58.45-.4685671.3185732-1.0234251.4860775-1.59.48-1.54-.08-3.719-.25-6.039-.61h-.01z"/><path id="Shape" d="m39.71 15.809.005-.009c.7450868-1.9148524 1.5919607-3.7885235 2.537-5.613.2468341-.44943558.6328256-.8066532 1.1-1.018 1.140431-.5797982 1.7876929-1.81902739 1.6119838-3.08625872-.175709-1.26723134-1.1357229-2.28360237-2.3908825-2.53123797-1.2551595-.24763559-2.5292587.32795806-3.1731013 1.43349669-.2818063.48228045-.4205432 1.03480003-.4 1.593.0433043.56663623-.0886576 1.13288563-.378 1.622-.84 1.294-2.077 3.1-3.548 4.926v.008z"/></g><path id="Shape" d="m53.791 43.964c-.65866.7556031-1.6496844 1.1345933-2.6444546 1.0112996-.9947702-.1232938-1.8632835-.7327588-2.3175454-1.6262996-.2116204-.4676404-.5696382-.853738-1.02-1.1-1.024-.534-3.688-1.7-4.945-2.248-.4009387-.1697237-.8656146-.0605309-1.149.27-2.6002257 2.9501899-6.1499782 4.8985742-10.035 5.508v.01c-.3044203 2.0045464-.5083419 4.0230705-.611 6.048-.0105627.5596326.1548876 1.1084517.473 1.569.3023708.4764169.4613556 1.0297395.458 1.594-.0002943 1.2839012-.8175669 2.4252942-2.0329315 2.8391677-1.2153646.4138734-2.5593741.0084713-3.3431677-1.008421-.7837937-1.0168923-.8336039-2.419829-.1239008-3.4897467.2911095-.4133076.443113-.9085449.434-1.414-.052-1.159-.371-4.053-.526-5.415-.0531867-.4326484-.3804987-.780999-.809-.861-3.6062357-.7287451-6.8751147-2.6170952-9.308-5.377-.2835936-.3355919-.7530186-.4467608-1.157-.274-1.239.54-3.839 1.682-4.873 2.206-.49152399.277998-.88567037.7004223-1.129 1.21-.26397022.4942154-.66274486.9033928-1.15 1.18-1.33778088.7709271-3.0422427.4005439-3.93943932-.8560485-.89719663-1.2565924-.69408615-2.9889664.46943932-4.0039515.59468041-.513861 1.36516506-.7776176 2.15-.736.50935683.0477512 1.02069494-.0678252 1.46-.33 1.16-.746 2.773-1.849 4.439-3.154.3331415-.2665786.460449-.715167.317-1.117-1.1697928-3.5049712-1.1697928-7.2950288 0-10.8.144406-.4024134.0170102-.8521165-.317-1.119-1.637-1.285-3.21-2.355-4.378-3.109-.47234644-.2858255-1.0227134-.4156324-1.573-.371-1.20877796.0497358-2.32914169-.6314497-2.84127382-1.7275056-.51213213-1.0960558-.31580059-2.3924672.49790228-3.2877356.81370286-.8952684 2.08552301-1.214176 3.22537154-.8087588.72706323.2599424 1.32756268.7874807 1.679 1.475.21162041.4676404.5696382.853738 1.02 1.1 1.024.534 3.69 1.7 4.946 2.248.4004523.1694645.864518.0607244 1.148-.269 2.4326649-2.7610615 5.7020392-4.6501972 9.309-5.379.4299191-.079453.7583839-.4289784.811-.863.153-1.343.466-4.168.525-5.322.0111941-.56173298-.1546356-1.11274939-.474-1.575-.3012698-.47570147-.4595465-1.02793447-.456-1.591.0024364-1.283284.8208425-2.42290874 2.0360842-2.83523309s2.5581698-.00602755 3.3410245 1.01081179c.7828547 1.01683933.832251 2.41901373.1228913 3.4884213-.288588.40910754-.4395346.89942114-.431 1.4.053 1.159.372 4.056.527 5.42.0529021.4333348.3807901.7822724.81.862 3.6059546.72874 6.8745164 2.6171098 9.307 5.377.2822273.3348259.7494731.4470783 1.153.277 1.239-.54 3.839-1.682 4.873-2.206.491524-.277998.8856704-.7004223 1.129-1.21.2639702-.4942154.6627449-.9033928 1.15-1.18 1.3377809-.7709271 3.0422427-.4005439 3.9394393.8560485s.6940862 2.9889664-.4694393 4.0039515c-.5940716.515304-1.3646226.7805169-2.15.74-.5093568-.0477512-1.0206949.0678252-1.46.33-1.16.746-2.772 1.848-4.438 3.154-.3331415.2665786-.460449.715167-.317 1.117 1.1700097 3.5049359 1.1700097 7.2950641 0 10.8-.1429715.4015425-.015708.8495744.317 1.116 1.637 1.285 3.212 2.356 4.38 3.11.4717235.2845114 1.0209268.4135917 1.57.369 1.1983491-.0539314 2.3136271.6111751 2.8357682 1.6911371.5221411 1.0799619.3507581 2.3671446-.4357682 3.2728629z" fill="#e47e25"/><circle id="Oval" cx="25.999" cy="23" fill="#f2d45b" r="4"/><circle id="Oval" cx="36.999" cy="26" fill="#f19b1f" r="2"/><circle id="Oval" cx="17.999" cy="31" fill="#f19b1f" r="2"/><circle id="Oval" cx="29.999" cy="36" fill="#f2d45b" r="5"/></g></g></svg>