<svg height="512" viewBox="0 0 56 56" width="512" xmlns="http://www.w3.org/2000/svg"><g id="Page-1" fill="none" fill-rule="evenodd"><g id="002---Virus" fill="rgb(0,0,0)" fill-rule="nonzero" transform="translate(-1)"><path id="Shape" d="m18 29c-.5522847 0-1 .4477153-1 1s.4477153 1 1 1 1-.4477153 1-1-.4477153-1-1-1z"/><path id="Shape" d="m42.952 48.757c-.6948877-.3405179-1.2668912-.8884113-1.637-1.568-.546-1.072-1.3-2.637-2.045-4.419-.825555.5768307-1.6983187 1.0829601-2.609 1.513 1.293 1.689 2.311 3.221 2.848 4.061.3822743.6139627.5546005 1.3355565.491 2.056-.0495481.852988.448249 1.6432474 1.2389949 1.9669208.7907458.3236733 1.6997793.1092671 2.2625441-.5336475.5627647-.6429147.6549564-1.5723299.229461-2.3132733-.1817375-.3233051-.4519934-.5880103-.779-.763z"/><path id="Shape" d="m16.636 47.273c-.3401039.6365329-.8777386 1.1453908-1.532 1.45-.7628665.383952-1.1977568 1.2099503-1.0825892 2.0561895.1151677.8462392.7549788 1.5259777 1.5927067 1.6920993s1.6885091-.2180322 2.1178825-.9562888c.1872022-.3192884.280123-.6850773.268-1.055-.0524878-.7715871.1362221-1.5404054.54-2.2.656-1.011 1.634-2.45 2.8-3.98-.9115904-.4291881-1.7856437-.9339514-2.613-1.509-.761 1.845-1.534 3.429-2.091 4.502z"/><path id="Shape" d="m15.049 7.244c.6945227.34020476 1.2662015.88777241 1.636 1.567.547 1.072 1.3 2.638 2.045 4.421.8264843-.5764729 1.6998814-1.0825816 2.611-1.513-1.216-1.586-2.2-3.047-2.85-4.063-.3810694-.61224742-.5533507-1.33154807-.491-2.05.0499416-.85306358-.4476151-1.64362103-1.2383481-1.96758539-.790733-.32396435-1.6999418-.10976052-2.2628916.53312294-.5629498.64288347-.6552653 1.5724111-.2297603 2.31346245.1830924.32159392.4535301.5847506.78.759z"/><path id="Shape" d="m41.364 8.727c.3415421-.63685903.8805394-1.14567809 1.536-1.45.763433-.38348076 1.1989842-1.20955077 1.0841073-2.05612664-.114877-.84657587-.7548136-1.52670648-1.5928321-1.69287668-.8380184-.1661702-1.6890572.21831572-2.1182752.95700332-.1889494.31876868-.2836125.68459114-.273 1.055.0524878.7715871-.1362221 1.54040538-.54 2.2-.656 1.011-1.634 2.45-2.8 3.98.9115904.4291881 1.7856437.9339514 2.613 1.509.761-1.845 1.534-3.429 2.091-4.502z"/><circle id="Oval" cx="25.999" cy="22" r="3"/><path id="Shape" d="m11.065 29.508c-.041-.5-.064-1-.064-1.508s.022-1.008.063-1.506c-1.978.259-3.733.381-4.937.435-.72073823.0231385-1.42964746-.1873244-2.021-.6-.83209795-.5720259-1.96007087-.434078-2.62979244.3216161-.66972156.7556942-.67109735 1.8920703-.00320756 2.6493839.650429.7347104 1.72998988.9061159 2.576.409.64249695-.4299843 1.40210751-.6510572 2.175-.633 1.201.058 2.933.184 4.841.432z"/><circle id="Oval" cx="36.999" cy="25" r="1"/><path id="Shape" d="m56.527 26.705c-.6508306-.7339782-1.7298349-.9052953-2.576-.409-.64128.4325868-1.4017379.6539063-2.175.633-1.2-.063-2.933-.189-4.841-.437.0433333.4986667.065 1.0013333.065 1.508 0 .506-.023 1.008-.064 1.507 2.109-.275 3.943-.391 4.938-.436.7205347-.0215668 1.4289604.1887526 2.021.6.8311684.5633816 1.9512224.423142 2.6178304-.3277731.6666081-.7509151.6730985-1.8796958.0151696-2.6382269z"/><path id="Shape" d="m52.515 39.264c-.3256148-.1928421-.7011326-.2847204-1.079-.264-.7586171.0542812-1.5149798-.132622-2.161-.534-1.584-1.024-3.083-2.088-4.454-3.164-.6635637-.5295039-.9229111-1.4188095-.648-2.222 1.09997-3.2966664 1.09997-6.8613336 0-10.158-.2766393-.8040643-.0171068-1.6952061.648-2.225 1.785-1.4 3.44-2.516 4.514-3.207.6174276-.3818767 1.3418262-.5537679 2.065-.49.5263949.0244145 1.0420068-.1546174 1.44-.5.5969525-.5304311.8211541-1.3651324.5703154-2.1232811-.2508388-.7581487-.9286353-1.2944176-1.7241529-1.3641404-.7955176-.0697227-1.556266.3404657-1.9351625 1.0434215-.3376421.6874795-.8793114 1.2539447-1.551 1.622-1.033.524-3.534 1.626-4.934 2.236-.7989729.3427573-1.7278058.1315488-2.3-.523-2.2922833-2.5913992-5.3651493-4.3670279-8.755-5.059-.857446-.163876-1.5095422-.8649502-1.611-1.732-.176-1.553-.479-4.331-.532-5.488-.0200203-.71380845.1903637-1.41508851.6-2 .4715533-.71278505.4380777-1.64644325-.0833119-2.3236271-.5213895-.67718385-1.4154645-.94823386-2.225115-.67457142-.8096505.27366243-1.3559415 1.03155715-1.3595731 1.88619852-.0021459.37206996.101929.73702613.3 1.052.4319076.63691603.6520078 1.39379467.629 2.163-.059 1.148-.358 3.866-.531 5.384-.1016614.8647843-.7511492 1.5644194-1.606 1.73-3.3908242.6928672-6.4645732 2.4690997-8.758 5.061-.5700597.6544125-1.4971205.8664852-2.295.525-1.428-.62-3.978-1.741-5.01-2.279-.63738253-.3414899-1.14685789-.8804391-1.452-1.536-.30450091-.5911235-.88090254-.994078-1.54064801-1.077046s-1.31797067.1647229-1.75935199.662046c-.39489608.4515384-.56626726 1.0564832-.46686574 1.6480482.09940153.591565.45907828 1.107277.97986574 1.4049518.32494827.189808.69815011.2808498 1.074.262.75881232-.0565813 1.51587842.1304957 2.161.534 1.588 1.027 3.087 2.091 4.453 3.163.664912.5303768.9240223 1.4218445.647 2.226-1.0993028 3.2957484-1.0993028 6.8592516 0 10.155.276167.8037707.0166786 1.6943605-.648 2.224-1.788 1.4-3.442 2.518-4.515 3.208-.61718871.3797809-1.33994085.551531-2.062.49-.52687012-.0256126-1.04322736.1535537-1.441.5-.76670832.6799277-.89544986 1.8293663-.29816172 2.6620668.59728814.8327006 1.72733741 1.0792205 2.61716172.5709332.32656051-.1843135.59369983-.4580446.77-.789.33790559-.6876258.87993999-1.2541076 1.552-1.622 1.033-.524 3.534-1.626 4.934-2.236.2490545-.1079307.5175647-.1637427.789-.164.5794479.0017465 1.1303304.2518829 1.513.687 2.2924456 2.5918979 5.3656863 4.3678912 8.756 5.06.8559525.1649231 1.5065006.8652332 1.608 1.731.176 1.547.478 4.317.532 5.482.0196871.7162487-.1905876 1.4199682-.6 2.008-.4716951.7129888-.438057 1.6469545.0837079 2.3241625.5217649.6772079 1.4162749.9479021 2.2259774.6736191s1.3555418-1.0328889 1.3583147-1.8877816c.0025832-.3727567-.1015111-.7384745-.3-1.054-.4319171-.634991-.6517503-1.3904051-.628-2.158.076-1.47.245-3.726.618-6.136.0596596-.4389159.3988645-.787453.836-.859 3.6539876-.5756757 6.992566-2.4083572 9.44-5.182.5708411-.6566812 1.5007553-.8689442 2.3-.525 1.433.622 3.988 1.746 5.009 2.279.6360431.3415106 1.1441391.8801345 1.448 1.535.3040316.5931128.8815551.9976282 1.5428588 1.0806664.6613038.0830381 1.3209091-.1661344 1.7621412-.6656664.3948961-.4515384.5662673-1.0564832.4668657-1.6480482-.0994015-.591565-.4590782-1.107277-.9798657-1.4049518zm-34.515-6.264c-1.6568542 0-3-1.3431458-3-3s1.3431458-3 3-3 3 1.3431458 3 3-1.3431458 3-3 3zm3-11c0-2.7614237 2.2385763-5 5-5s5 2.2385763 5 5-2.2385763 5-5 5c-2.7600532-.0033061-4.9966939-2.2399468-5-5zm9 19c-3.3137085 0-6-2.6862915-6-6s2.6862915-6 6-6 6 2.6862915 6 6c-.0033074 3.3123376-2.6876624 5.9966926-6 6zm7-13c-1.6568542 0-3-1.3431458-3-3s1.3431458-3 3-3 3 1.3431458 3 3-1.3431458 3-3 3z"/><path id="Shape" d="m30 31c-2.209139 0-4 1.790861-4 4s1.790861 4 4 4 4-1.790861 4-4-1.790861-4-4-4z"/></g></g></svg>